<?xml version="1.0" encoding="utf-8"?>
<!-- Generator: Adobe Illustrator 28.1.0, SVG Export Plug-In . SVG Version: 6.00 Build 0)  -->
<svg version="1.1" id="Layer_1" xmlns="http://www.w3.org/2000/svg" xmlns:xlink="http://www.w3.org/1999/xlink" x="0px" y="0px"
	 viewBox="0 0 1867 587" style="enable-background:new 0 0 1867 587;" xml:space="preserve">
<style type="text/css">
	.st0{fill:#FFA300;}
</style>
<path class="st0" d="M229.66,310.63l-55.44-37.9l33.42-58.25l-64.2,19.71l-24.71-62.45l-24.62,62.49L29.88,214.6l33.5,58.21
	L8,310.79l66.4,10.1l-4.84,66.99l49.29-45.62l49.36,45.55l-4.93-66.98L229.66,310.63z M118.84,319.05l-30.98,28.67l3.04-42.1
	l-41.73-6.35l34.81-23.87l-21.06-36.58l40.37,12.33l15.47-39.28l15.53,39.25l40.35-12.39l-21.01,36.62l34.85,23.82l-41.72,6.41
	l3.1,42.1L118.84,319.05z"/>
<path class="st0" d="M1860.19,310.63l-55.44-37.9l33.42-58.25l-64.2,19.71l-24.71-62.45l-24.62,62.49l-64.23-19.62l33.5,58.21
	l-55.39,37.98l66.4,10.1l-4.84,66.99l49.29-45.62l49.36,45.55l-4.93-66.98L1860.19,310.63z M1749.38,319.05l-30.98,28.67l3.04-42.1
	l-41.73-6.35l34.81-23.87l-21.06-36.58l40.37,12.33l15.47-39.28l15.53,39.25l40.35-12.39l-21.01,36.62l34.85,23.82l-41.72,6.41
	l3.1,42.1L1749.38,319.05z"/>
<g>
	<rect x="184.5" y="13.01" class="st0" width="38.48" height="166.9"/>
	
		<rect x="930.76" y="-694.77" transform="matrix(-3.501617e-07 -1 1 -3.501617e-07 917.7532 982.2536)" class="st0" width="38.48" height="1454.03"/>
	<rect x="1638.53" y="13.01" class="st0" width="38.48" height="166.9"/>
</g>
<g>
	
		<rect x="1638.53" y="411.1" transform="matrix(-1 5.648980e-07 -5.648980e-07 -1 3315.5544 989.0978)" class="st0" width="38.48" height="166.9"/>
	
		<rect x="892.28" y="-168.26" transform="matrix(3.501621e-07 1 -1 3.501621e-07 1470.2761 -352.7615)" class="st0" width="38.48" height="1454.03"/>
	
		<rect x="184.5" y="411.1" transform="matrix(-1 5.648980e-07 -5.648980e-07 -1 407.4903 989.0986)" class="st0" width="38.48" height="166.9"/>
</g>
<g>
	<path class="st0" d="M295.69,264.31l-12.18-5.89c-1.84-1.05-2.75-2.14-2.75-3.27c0-1.13,3.08-5.06,9.23-11.78
		c4.45-4.8,10.44-11.38,17.97-19.76c7.53-8.37,13.58-15.26,18.17-20.67c4.58-5.41,10.18-12.5,16.79-21.26
		c6.61-8.77,12.67-17.34,18.17-25.71c12.7-19.28,19.05-31.58,19.05-36.9c0-6.28-3.67-9.42-11-9.42c-5.5,0-13.33,1.85-23.47,5.56
		c-10.15,3.71-20.66,8.57-31.52,14.59c-10.87,6.02-19.9,12.3-27.1,18.84c-7.2,6.54-10.8,12.3-10.8,17.27c0,0.78,0.33,1.37,0.98,1.77
		c0.65,0.39,1.83,0.59,3.54,0.59c3.14,0,8.25-1.22,15.32-3.66c3.14-1.05,4.71-0.87,4.71,0.52c0,1.4-4.98,4.99-14.93,10.79
		c-9.95,5.8-17.28,8.7-22,8.7c-4.06,0-9.72-2.33-16.99-7c-7.27-4.67-10.9-8.92-10.9-12.76c0-1.48,2.03-5.02,6.09-10.6
		c4.06-5.58,9.62-11.88,16.69-18.91c7.07-7.02,14.53-13.1,22.39-18.25c9.03-6.02,19.35-11.38,30.93-16.09s22.72-8.37,33.39-10.99
		c10.67-2.62,19.28-3.93,25.83-3.93c9.43,0,16.79,2.38,22.1,7.13c5.3,4.76,7.95,11.41,7.95,19.95c0,11.34-6.68,27.74-20.03,49.2
		c-13.36,21.46-33.91,46.58-61.67,75.37c0.39,0.87,0.85,1.81,1.38,2.81c0.52,1,0.79,1.94,0.79,2.81c0,0.18-0.2,0.5-0.59,0.98
		c-0.39,0.48-0.85,0.98-1.38,1.5c-0.52,0.52-0.85,0.87-0.98,1.05l-14.34,15.7c-1.57,1.83-3.21,2.75-4.91,2.75
		C298.05,265.35,296.74,265,295.69,264.31z"/>
	<path class="st0" d="M464.11,209.88c23.44-25.56,40.95-45.69,52.54-60.38c11.59-14.7,17.38-24.05,17.38-28.07
		c0-1.48-0.79-2.7-2.36-3.66c-1.57-0.96-3.41-1.44-5.5-1.44c-4.06,0-15.52,2.62-34.37,7.85c-15.58,4.36-26.98,7.83-34.17,10.4
		c-7.2,2.57-17.12,6.26-29.76,11.06c-12.63,4.8-19.87,7.2-21.7,7.2c-3.66,0-5.5-1.7-5.5-5.1c0-6.45,6.35-15.13,19.05-26.04
		c12.7-10.9,29.79-20.45,51.26-28.65c2.62-1.13,3.93-1.05,3.93,0.26c0,0.44-1.57,1.44-4.71,3.01s-5.93,3.16-8.35,4.78
		c-2.42,1.62-5.14,4.04-8.15,7.26c27.5-9.16,47.69-15.61,60.59-19.36c12.9-3.75,23.93-5.63,33.09-5.63c7.98,0,14.27,1.11,18.85,3.34
		c4.58,2.22,6.87,5.43,6.87,9.62c0,3.66-2.19,8.99-6.58,15.96c-4.39,6.98-10.77,15.46-19.15,25.45
		c-8.38,9.99-16.92,19.87-25.63,29.64c-8.71,9.77-24.45,27.43-47.24,52.99c25.4-21.2,48.77-39.73,70.12-55.61
		c21.34-15.88,39.94-28.79,55.78-38.73c15.84-9.94,29.2-17.42,40.07-22.44c10.87-5.02,18.85-7.52,23.96-7.52
		c1.83,0,3.99,1.16,6.48,3.47c2.49,2.31,4.71,5.13,6.68,8.44c1.96,3.32,2.95,6.02,2.95,8.11c0,5.76-2.19,11.47-6.58,17.14
		c-4.39,5.67-10.9,12.48-19.54,20.41c-24.62,22.16-42.59,39.6-53.91,52.34c-11.33,12.74-16.99,22.99-16.99,30.75
		c0,5.85,4.58,8.77,13.75,8.77c4.19,0,9.1-1.05,14.73-3.14c5.63-2.09,12.37-5.32,20.23-9.68c7.86-4.36,15.78-9.11,23.77-14.26
		l0.39,10.21c-11.26,7.68-21.34,14.24-30.25,19.69c-8.91,5.45-17.32,10.23-25.24,14.33c-7.92,4.1-15.02,7.2-21.31,9.29
		c-6.29,2.09-11.78,3.14-16.5,3.14c-6.81,0-12.28-1.55-16.4-4.64c-4.12-3.1-6.19-7.18-6.19-12.23c0-4.71,1.54-10.4,4.62-17.08
		c3.07-6.67,7.79-14.37,14.14-23.09c6.35-8.72,14.21-18.19,23.57-28.39c9.36-10.21,19.94-20.85,31.72-31.93
		c11.52-10.99,17.28-18.06,17.28-21.2c0-1.83-1.44-2.75-4.32-2.75c-11.66,0-38.23,15.48-79.74,46.45
		c-2.62,1.92-7.17,5.48-13.65,10.66c-6.48,5.19-13.09,10.71-19.84,16.55c-6.75,5.85-14.31,12.41-22.69,19.69
		c-8.38,7.28-16.89,14.68-25.53,22.18c-4.06,3.58-7.53,5.36-10.41,5.36c-3.14,0-7.27-1.7-12.37-5.1s-7.66-5.89-7.66-7.46
		c0-1.83,3.63-6.41,10.9-13.74S459.66,214.85,464.11,209.88z"/>
	<path class="st0" d="M868.16,222.7c-3.27-4.01-8.18-7.63-14.73-10.86c-6.55-3.23-13.91-5.82-22.1-7.79
		c-8.19-1.96-16.73-3.42-25.63-4.38c-26.45-2.62-51.13-8.33-74.04-17.14c-1.96-0.7-4.06-2.18-6.29-4.45
		c-2.23-2.27-3.34-4.45-3.34-6.54c0-7.67,1.93-15.37,5.79-23.09c3.86-7.72,8.8-13.76,14.83-18.12c9.69-7.24,27.13-13.56,52.34-18.97
		c25.2-5.41,53.59-8.11,85.14-8.11c18.85,0,33.42,0.96,43.7,2.88c10.28,1.92,15.42,4.89,15.42,8.9c0,6.54-1.34,11.6-4.03,15.18
		c-2.69,3.58-5.57,5.95-8.64,7.13c-3.08,1.18-8.48,2.77-16.2,4.78c-8.25,1.92-15.42,3.93-21.51,6.02
		c-6.09,2.09-11.29,4.1-15.61,6.02c-4.32,1.92-7.01,2.88-8.05,2.88c-1.31,0-1.96-0.35-1.96-1.05c0-1.48,2.32-3.73,6.97-6.74
		c4.65-3.01,10.38-5.65,17.19-7.92c7.2-2.53,10.8-4.14,10.8-4.84c0-1.13-4-1.7-11.98-1.7c-24.23,0-46.62,1.44-67.17,4.32
		c-20.56,2.88-36.76,6.67-48.61,11.38c-11.85,4.71-17.77,9.51-17.77,14.39c0,3.05,2.46,5.21,7.37,6.48
		c4.91,1.27,15.74,3.38,32.51,6.35c16.76,2.97,31.75,6.37,44.98,10.21c18.98,5.41,33.06,11.04,42.23,16.88
		c9.16,5.85,13.75,12.39,13.75,19.63c0,4.97-1.8,9.97-5.4,14.98c-3.6,5.02-8.87,9.62-15.81,13.8c-6.94,4.19-14.93,7.63-23.96,10.34
		c-7.73,2.18-17.45,4.23-29.17,6.15c-11.72,1.92-24.42,3.42-38.1,4.51c-13.68,1.09-26.75,1.64-39.18,1.64
		c-22.92,0-41.34-1.44-55.29-4.32c-13.94-2.88-20.92-7.24-20.92-13.08c0-2.62,2.36-6.69,7.07-12.23
		c4.71-5.54,10.28-9.27,16.69-11.19c5.63-1.48,11.06-2.33,16.3-2.55c5.24-0.22,7.86,0.2,7.86,1.24c0,0.26-0.2,0.52-0.59,0.78
		c-0.39,0.26-0.85,0.48-1.38,0.65c-0.52,0.18-1.05,0.35-1.57,0.52c-2.62,0.7-4.75,1.24-6.38,1.64c-1.64,0.39-2.95,0.79-3.93,1.18
		c-0.98,0.39-1.47,0.94-1.47,1.64c0,1.83,13.55,2.75,40.66,2.75c23.57,0,42.88-0.57,57.94-1.7c15.06-1.13,28.35-3.18,39.87-6.15
		C848.25,232.03,858.73,227.93,868.16,222.7z"/>
	<path class="st0" d="M1003.32,264.31l-12.18-5.89c-1.83-1.05-2.75-2.14-2.75-3.27c0-1.13,3.08-5.06,9.23-11.78
		c4.45-4.8,10.44-11.38,17.97-19.76c7.53-8.37,13.58-15.26,18.17-20.67c4.58-5.41,10.18-12.5,16.79-21.26
		c6.61-8.77,12.67-17.34,18.17-25.71c12.7-19.28,19.05-31.58,19.05-36.9c0-6.28-3.67-9.42-11-9.42c-5.5,0-13.33,1.85-23.47,5.56
		c-10.15,3.71-20.66,8.57-31.52,14.59c-10.87,6.02-19.9,12.3-27.1,18.84c-7.2,6.54-10.8,12.3-10.8,17.27c0,0.78,0.33,1.37,0.98,1.77
		c0.65,0.39,1.83,0.59,3.54,0.59c3.14,0,8.25-1.22,15.32-3.66c3.14-1.05,4.71-0.87,4.71,0.52c0,1.4-4.98,4.99-14.93,10.79
		c-9.95,5.8-17.28,8.7-22,8.7c-4.06,0-9.72-2.33-16.99-7c-7.27-4.67-10.9-8.92-10.9-12.76c0-1.48,2.03-5.02,6.09-10.6
		c4.06-5.58,9.62-11.88,16.69-18.91c7.07-7.02,14.53-13.1,22.39-18.25c9.04-6.02,19.35-11.38,30.93-16.09
		c11.59-4.71,22.72-8.37,33.39-10.99c10.67-2.62,19.28-3.93,25.83-3.93c9.43,0,16.79,2.38,22.1,7.13c5.3,4.76,7.96,11.41,7.96,19.95
		c0,11.34-6.68,27.74-20.03,49.2c-13.36,21.46-33.91,46.58-61.67,75.37c0.39,0.87,0.85,1.81,1.37,2.81c0.52,1,0.79,1.94,0.79,2.81
		c0,0.18-0.2,0.5-0.59,0.98c-0.39,0.48-0.85,0.98-1.38,1.5c-0.53,0.52-0.85,0.87-0.98,1.05l-14.34,15.7
		c-1.57,1.83-3.21,2.75-4.91,2.75C1005.68,265.35,1004.37,265,1003.32,264.31z"/>
	<path class="st0" d="M1138.69,145.5c0,0.61,0.85,0.92,2.55,0.92c1.18,0,6.51-0.52,16.01-1.57c9.49-1.05,18.1-1.61,25.83-1.7
		c-8.64,1.57-16.08,3.16-22.29,4.78c-6.22,1.62-12.64,3.4-19.25,5.36c-6.61,1.96-11.36,3.27-14.24,3.93
		c-2.88,0.65-5.37,0.98-7.46,0.98c-6.68,0-10.02-2.88-10.02-8.64c0-14.83,5.63-25.25,16.89-31.27c4.58-2.44,11.95-5.34,22.1-8.7
		c10.15-3.36,21.61-6.54,34.37-9.55c12.77-3.01,26.81-5.6,42.13-7.79c15.32-2.18,30.44-3.27,45.37-3.27
		c15.32,0,29.39,1.48,42.23,4.45c12.83,2.97,23.57,7.13,32.21,12.5c8.64,5.36,15.29,11.93,19.94,19.69
		c4.65,7.76,6.97,16.49,6.97,26.17c0,14.74-6.38,29.05-19.15,42.92c-12.77,13.87-29.79,26.1-51.07,36.7
		c-21.28,10.6-45.27,19-71.98,25.19c-26.71,6.19-53.03,9.29-78.96,9.29c-4.85,0-8.68-0.35-11.49-1.05c-2.82-0.7-4.81-2.07-5.99-4.12
		c-1.18-2.05-1.77-5.08-1.77-9.09c0-4.97,0.59-9.03,1.77-12.17c1.18-3.14,3.14-6.76,5.89-10.86c18.86-27.82,51.66-62.85,98.4-105.07
		c-9.43,0.7-19.77,2.03-31.03,3.99c-11.26,1.96-21.93,4.12-32.01,6.48c-10.08,2.35-18.59,4.62-25.53,6.8
		C1142.15,142.97,1138.69,144.54,1138.69,145.5z M1243.37,122.73c0,0.18,0.26,1.16,0.79,2.94c0.52,1.79,0.79,3.34,0.79,4.64
		c0,2.01-1.54,4.82-4.62,8.44c-3.08,3.62-9.13,10.05-18.17,19.3c-9.04,9.25-16.76,17.36-23.18,24.34
		c-6.42,6.98-14.01,15.96-22.78,26.95c-2.75,3.49-4.65,5.84-5.7,7.07c-1.05,1.22-2.72,3.23-5.01,6.02c-2.29,2.79-3.96,5.19-5.01,7.2
		c-1.05,2.01-1.57,3.53-1.57,4.58c0,2.27,1.87,3.86,5.6,4.78c3.73,0.92,9.07,1.37,16.01,1.37c17.81,0,36.66-2.16,56.57-6.48
		c19.9-4.32,38.59-10.31,56.07-17.99c17.48-7.67,31.46-16.36,41.93-26.04c10.47-9.68,15.71-19.8,15.71-30.36
		c0-12.04-6.61-21.3-19.84-27.8c-13.23-6.5-32.47-9.75-57.74-9.75C1262.62,121.95,1252.67,122.21,1243.37,122.73z"/>
	<path class="st0" d="M1613.38,95.65v8.9c0,3.66-1.08,5.98-3.24,6.93c-2.16,0.96-10.08,3.53-23.77,7.72
		c-13.68,4.19-26.81,9.12-39.38,14.79c4.84-4.71,9.26-8.2,13.26-10.47c3.99-2.27,9.39-5.1,16.2-8.5
		c-5.89-1.57-14.08-2.35-24.55-2.35c-16.24,0-33.75,2.14-52.54,6.41c-18.79,4.27-34.76,9.38-47.92,15.31
		c-13.16,5.93-19.74,10.91-19.74,14.92c0,2.09,2,3.82,5.99,5.17c3.99,1.35,10.41,2.4,19.25,3.14c8.84,0.74,19.87,1.24,33.09,1.5
		c13.22,0.26,29.53,0.39,48.91,0.39c14.14,0,23.24,0.35,27.3,1.05c4.06,0.7,6.09,2.31,6.09,4.84c0,3.23-2.39,6.91-7.17,11.06
		c-4.78,4.14-11.1,6.61-18.95,7.39c-12.18,1.31-21.87,2.42-29.07,3.34c-7.2,0.92-15.75,2.47-25.63,4.65
		c-9.89,2.18-20.85,5.32-32.9,9.42c-17.94,6.28-31.95,12.65-42.03,19.1c-10.08,6.46-15.12,12.17-15.12,17.14
		c0,4.27,3.6,7.61,10.8,10.01c7.2,2.4,17.54,3.6,31.03,3.6c46.48,0,93.81-13.91,142-41.74c0.26,8.55-1.15,16.07-4.22,22.57
		c-3.08,6.5-9.33,12.71-18.76,18.65c-7.86,4.97-19.35,9.73-34.47,14.26c-15.12,4.53-31.62,8.16-49.49,10.86
		c-17.87,2.7-34.67,4.06-50.38,4.06c-18.2,0-33.26-2.9-45.17-8.7c-11.92-5.8-17.87-13.5-17.87-23.09c0-6.98,2.88-13.91,8.64-20.8
		c5.76-6.89,14.6-13.5,26.52-19.82c11.91-6.32,27.01-12.06,45.27-17.21c18.27-5.15,39.31-9.2,63.14-12.17
		c3.4-0.44,5.11-1.13,5.11-2.09c0-1.05-2-1.68-5.99-1.9c-4-0.22-11.33-0.37-22-0.46c-10.67-0.09-20.07-0.39-28.18-0.92
		c-8.12-0.52-16.69-1.66-25.73-3.4c-9.3-1.92-16.47-5.28-21.51-10.08c-5.04-4.8-7.56-10.12-7.56-15.96c0-7.5,4.06-15.05,12.18-22.64
		c8.12-7.59,19.57-14.44,34.37-20.54c14.79-6.1,32.7-11.01,53.72-14.72c21.02-3.71,44.03-5.56,69.04-5.56
		c14.4,0,24.45,0.55,30.15,1.64c5.7,1.09,9,2.53,9.92,4.32C1612.92,87.43,1613.38,90.76,1613.38,95.65z"/>
</g>
<g>
	<path class="st0" d="M404.22,334.5c3.32-0.63,6.67-1.26,10.05-1.9c3.38-0.63,6.83-1.17,10.33-1.63c3.5-0.45,6.92-0.68,10.24-0.68
		c7.13,0,13.25,1.17,18.35,3.52c5.1,2.35,8.91,5.54,11.44,9.55c2.52,4.02,3.78,8.38,3.78,13.08c0,7.32-1.82,15.7-5.44,25.14
		c-3.63,9.44-8.83,19.04-15.59,28.8c-6.76,9.76-14.7,18.97-23.79,27.65c-12.42,11.75-27.33,21.21-44.73,28.39
		c-17.4,7.18-33.36,10.77-47.87,10.77c-10.7,0-20.14-2.15-28.31-6.44c-8.18-4.29-14.57-10.52-19.18-18.7
		c-4.61-8.18-6.92-17.77-6.92-28.8c0-14.82,5.5-29.66,16.51-44.52c11-14.86,24.9-28.32,41.69-40.39
		c16.79-12.06,33.72-21.73,50.82-29c17.09-7.27,30.99-10.91,41.69-10.91c8.73,0,15.43,1.96,20.11,5.89
		c4.67,3.93,9.04,10.28,13.1,19.04c-11.44,0.27-21.4,1.29-29.88,3.05C422.11,328.2,413.32,330.89,404.22,334.5z M357.73,362.01
		c-8.61,6.78-17.31,15.52-26.1,26.22c-8.79,10.71-15.9,21.21-21.3,31.51c-5.41,10.3-8.12,18.16-8.12,23.58
		c0,13.46,8.55,20.19,25.64,20.19c11.93,0,27.33-5.92,46.21-17.75c18.88-11.83,35.29-26.09,49.25-42.76
		c13.96-16.67,20.94-31.82,20.94-45.47c0-10.03-5.41-15.04-16.23-15.04c-8.36,0-18.57,2.44-30.62,7.32
		c-12.05,4.88-23.61,11.79-34.68,20.73c-3.94,3.25-11.74,11.2-23.43,23.85C341.5,385.91,347.65,375.11,357.73,362.01z"/>
	<path class="st0" d="M714.14,366.75c-12.05,13.01-22.2,24.8-30.44,35.37c-8.24,10.57-14.42,19.58-18.54,27.04
		c-4.12,7.45-6.18,12.99-6.18,16.6c0,6.69,3.99,10.03,11.99,10.03c8.48,0,27.67-8.49,57.55-25.48l-0.37,9.35
		c-34.56,25.93-59.89,38.9-76,38.9c-19.18,0-28.77-7.32-28.77-21.96c0-8.76,5.84-21.19,17.52-37.27
		c11.68-16.08,29.51-36.86,53.49-62.34c-28.16,22.59-51.68,41.15-70.55,55.7c-18.88,14.55-38.4,28.64-58.56,42.28
		c-4.8,3.34-9.16,6.39-13.1,9.15c-3.94,2.76-7.87,4.93-11.81,6.5c-3.94,1.58-8.24,2.37-12.91,2.37c-7.26,0-13.28-2.08-18.08-6.23
		c-4.8-4.15-7.19-10.03-7.19-17.62c0-4.88,1.97-10.55,5.9-17.01c3.93-6.46,9.9-13.98,17.89-22.56c7.99-8.58,17.83-17.98,29.51-28.19
		c18.94-16.71,32.03-28.5,39.29-35.37c7.25-6.87,10.88-11.25,10.88-13.15c0-1.36-0.99-2.03-2.95-2.03c-2.34,0-6.24,0.79-11.71,2.37
		c-5.47,1.58-12.7,4.16-21.67,7.72c-8.98,3.57-20.54,8.65-34.68,15.25c-10.58,4.88-21,8.83-31.27,11.86
		c-10.27,3.03-17.49,4.54-21.67,4.54c-2.46,0-4.52-0.5-6.18-1.49c-1.66-0.99-2.49-2.26-2.49-3.79c0-2.17,1.29-5.71,3.87-10.64
		c2.58-4.92,5.93-10.03,10.05-15.31s7.78-9.24,10.98-11.86c8.85-7.23,20.96-13.6,36.34-19.11c15.37-5.51,31.17-9.76,47.4-12.74
		s29.63-4.47,40.21-4.47c7.87,0,13.62,0.97,17.25,2.91c3.63,1.94,5.44,5.13,5.44,9.55c0,9.67-1.66,17.14-4.98,22.43
		s-8.85,12.13-16.6,20.53c-2.83,3.25-7.04,7.7-12.64,13.35c-5.6,5.65-11.25,11.16-16.97,16.53c-5.72,5.38-10.42,9.87-14.11,13.48
		c-3.69,3.61-7.5,7.59-11.44,11.93c-10.7,11.57-17.46,19.02-20.29,22.36c-2.83,3.34-4.24,6.23-4.24,8.67c0,3.16,2.03,4.74,6.09,4.74
		c3.69,0,7.25-0.97,10.7-2.91c3.44-1.94,10.82-6.53,22.13-13.75c13.03-8.22,25.7-16.85,38-25.89c12.29-9.03,23.49-17.64,33.57-25.82
		c10.08-8.18,22.87-18.77,38.37-31.78c17.34-14.82,28.41-24.08,33.2-27.78c4.8-3.7,8.73-5.56,11.81-5.56c2.7,0,5.13,1.61,7.29,4.81
		c2.15,3.21,3.23,7.7,3.23,13.49c0,3.07-2.12,7.16-6.36,12.26C737.1,341.84,728.03,351.85,714.14,366.75z"/>
	<path class="st0" d="M884.06,446.58l6.09,3.39c-1.6,2.53-3.14,4.74-4.61,6.64c-1.48,1.9-3.26,4.2-5.35,6.91
		c-2.09,2.71-3.69,4.74-4.8,6.1c-9.22,11.83-17.89,17.75-26.01,17.75c-3.44,0-6.4-1-8.85-2.98c-2.46-1.99-3.69-4.7-3.69-8.13
		c0-4.88,2.37-11.56,7.1-20.06c4.73-8.49,12.05-18.95,21.95-31.37c9.9-12.42,22.35-26.5,37.35-42.22
		c15-15.72,31.91-32.3,50.72-49.74c-10.82-1.17-23.67-1.76-38.55-1.76c-17.09,0-36.12,1.4-57.09,4.2
		c-20.97,2.8-39.23,6.03-54.78,9.69c-15.56,3.66-23.33,6.35-23.33,8.06c0,0.63,0.31,1.06,0.92,1.29c0.61,0.23,1.63,0.41,3.04,0.54
		c1.41,0.14,3.23,0.29,5.44,0.47c14.39,1.45,21.58,3.07,21.58,4.88c0,0.9-3.14,1.33-9.41,1.29c-6.27-0.04-13.83-0.07-22.69-0.07
		c-7.01,0-12.08-0.2-15.22-0.61s-5.23-1.17-6.27-2.3c-1.05-1.13-1.57-2.87-1.57-5.22c0-1.54,0.61-4.88,1.84-10.03
		c2.33-9.58,5.93-17.26,10.79-23.04c4.86-5.78,12.29-10.5,22.32-14.16c10.02-3.66,23.82-6.57,41.41-8.74
		c29.51-3.7,53.92-5.56,73.23-5.56c14.26,0,25.52,0.43,33.76,1.29c8.24,0.86,14.3,2.1,18.17,3.73s6.33,3.23,7.38,4.81
		c1.04,1.58,2.43,4.32,4.15,8.2l5.72,12.47c0.37,0.81,0.67,1.47,0.92,1.96c0.25,0.5,0.46,1.02,0.65,1.56
		c0.18,0.54,0.28,1.04,0.28,1.49c0,3.52-1.08,6.69-3.23,9.49c-2.15,2.8-6.09,7-11.8,12.6c-5.72,5.6-9.93,9.98-12.64,13.15
		C917.26,400.41,895.62,428.42,884.06,446.58z"/>
	<path class="st0" d="M1081.83,406.06h27.85c16.11-15.9,28.37-29.77,36.8-41.61c8.42-11.83,12.63-19.6,12.63-23.31
		c0-5.15-6.03-7.72-18.08-7.72c-7.01,0.45-19.43,1.56-37.26,3.32c-17.83,1.76-35.11,3.86-51.83,6.3c-15,2.08-27.02,4.22-36.06,6.44
		c-9.04,2.21-15.4,4.04-19.09,5.49c-3.69,1.45-5.97,2.49-6.83,3.12c9.1-0.36,16.79-0.54,23.06-0.54c9.84,0,14.76,0.81,14.76,2.44
		c0,0.72-3.44,1.65-10.33,2.78c-6.89,1.13-13.41,2.33-19.55,3.59c-6.03,1.27-11.9,2.76-17.62,4.47c-5.72,1.72-9.19,2.58-10.42,2.58
		c-2.83,0-5.16-0.79-7.01-2.37c-1.84-1.58-2.77-3.5-2.77-5.76c0-1.54,1.69-5.53,5.07-11.99c3.38-6.46,8.14-12.96,14.29-19.51
		c6.15-6.55,13.77-11.41,22.87-14.57c3.32-1.17,13.93-3.3,31.82-6.37c17.89-3.07,38.09-5.87,60.59-8.4
		c22.5-2.53,43.1-3.79,61.79-3.79c11.31,0,20.38,1.15,27.21,3.46c6.83,2.3,10.24,7.25,10.24,14.84c0,2.44-1.23,6.21-3.69,11.32
		c-2.46,5.11-6.36,11.63-11.71,19.58c-5.35,7.95-11.87,16.67-19.55,26.16c-7.69,9.49-16.45,19.52-26.29,30.09h28.41l-24.53,25.88
		c-3.32,0.18-7.47,0.32-12.45,0.41c-4.98,0.09-10.42,0.23-16.32,0.41c-15.12,14.46-31.51,28.05-49.16,40.79
		c-17.65,12.74-33.63,22.95-47.96,30.63c-14.33,7.68-24.38,11.52-30.16,11.52c-2.34,0-4.37-0.57-6.09-1.69
		c-1.72-1.13-2.58-2.6-2.58-4.41c0-1.54,2.74-5.47,8.21-11.79c5.47-6.33,13.06-12.24,22.78-17.75c9.71-5.51,20.78-8.58,33.2-9.22
		c5.04-3.88,9.38-7.34,13-10.37c3.63-3.03,8.76-7.41,15.4-13.15c6.64-5.74,11.74-10.14,15.31-13.21l-55.52,2.03
		c-6.03,0.18-10.18-0.02-12.45-0.61c-2.28-0.59-3.41-2.05-3.41-4.4c2.46-4.61,4.36-7.77,5.72-9.49c1.97-2.62,3.53-4.2,4.7-4.74
		c1.17-0.54,4.52-1.26,10.05-2.17l33.94-6.1C1071.93,406.92,1078.26,406.06,1081.83,406.06z"/>
	<path class="st0" d="M1248.8,477.48l-11.44-6.1c-1.72-1.08-2.58-2.21-2.58-3.39c0-1.17,2.89-5.24,8.67-12.2
		c4.18-4.97,9.81-11.79,16.88-20.46c7.07-8.67,12.76-15.81,17.06-21.41c4.3-5.6,9.56-12.94,15.77-22.02
		c6.21-9.08,11.9-17.96,17.06-26.63c11.93-19.97,17.89-32.71,17.89-38.22c0-6.5-3.44-9.76-10.33-9.76c-5.17,0-12.51,1.92-22.04,5.76
		c-9.53,3.84-19.4,8.88-29.61,15.11c-10.21,6.23-18.69,12.74-25.46,19.52c-6.76,6.78-10.14,12.74-10.14,17.89
		c0,0.81,0.3,1.42,0.92,1.83c0.61,0.41,1.72,0.61,3.32,0.61c2.95,0,7.75-1.26,14.39-3.79c2.95-1.08,4.43-0.9,4.43,0.54
		c0,1.45-4.67,5.17-14.02,11.18c-9.35,6.01-16.23,9.01-20.66,9.01c-3.81,0-9.13-2.42-15.96-7.25c-6.83-4.83-10.24-9.24-10.24-13.21
		c0-1.54,1.91-5.19,5.72-10.98c3.81-5.78,9.04-12.31,15.68-19.58c6.64-7.27,13.65-13.57,21.03-18.91
		c8.48-6.23,18.17-11.79,29.05-16.67s21.33-8.67,31.36-11.38c10.02-2.71,18.11-4.07,24.26-4.07c8.85,0,15.77,2.46,20.75,7.39
		c4.98,4.93,7.47,11.81,7.47,20.67c0,11.75-6.27,28.73-18.81,50.96s-31.85,48.25-57.92,78.06c0.37,0.9,0.8,1.88,1.29,2.91
		c0.49,1.04,0.74,2.01,0.74,2.91c0,0.18-0.18,0.52-0.55,1.02c-0.37,0.5-0.8,1.02-1.29,1.56c-0.49,0.54-0.8,0.9-0.92,1.08
		l-13.46,16.26c-1.48,1.9-3.01,2.85-4.61,2.85C1251.01,478.56,1249.78,478.2,1248.8,477.48z"/>
	<path class="st0" d="M1507.08,446.58l6.09,3.39c-1.6,2.53-3.14,4.74-4.61,6.64s-3.26,4.2-5.35,6.91c-2.09,2.71-3.69,4.74-4.8,6.1
		c-9.22,11.83-17.89,17.75-26.01,17.75c-3.44,0-6.4-1-8.85-2.98c-2.46-1.99-3.69-4.7-3.69-8.13c0-4.88,2.37-11.56,7.1-20.06
		c4.73-8.49,12.05-18.95,21.95-31.37c9.9-12.42,22.35-26.5,37.35-42.22c15-15.72,31.91-32.3,50.73-49.74
		c-10.82-1.17-23.67-1.76-38.55-1.76c-17.09,0-36.12,1.4-57.09,4.2c-20.97,2.8-39.23,6.03-54.78,9.69
		c-15.56,3.66-23.33,6.35-23.33,8.06c0,0.63,0.31,1.06,0.92,1.29c0.61,0.23,1.63,0.41,3.04,0.54c1.41,0.14,3.23,0.29,5.44,0.47
		c14.39,1.45,21.58,3.07,21.58,4.88c0,0.9-3.14,1.33-9.41,1.29c-6.27-0.04-13.83-0.07-22.69-0.07c-7.01,0-12.08-0.2-15.22-0.61
		s-5.23-1.17-6.27-2.3c-1.05-1.13-1.57-2.87-1.57-5.22c0-1.54,0.61-4.88,1.84-10.03c2.33-9.58,5.93-17.26,10.79-23.04
		c4.86-5.78,12.29-10.5,22.32-14.16c10.02-3.66,23.82-6.57,41.41-8.74c29.51-3.7,53.92-5.56,73.23-5.56
		c14.26,0,25.52,0.43,33.75,1.29c8.24,0.86,14.3,2.1,18.17,3.73c3.87,1.63,6.33,3.23,7.38,4.81c1.04,1.58,2.43,4.32,4.15,8.2
		l5.72,12.47c0.37,0.81,0.67,1.47,0.92,1.96c0.25,0.5,0.46,1.02,0.65,1.56c0.18,0.54,0.28,1.04,0.28,1.49
		c0,3.52-1.08,6.69-3.23,9.49c-2.15,2.8-6.09,7-11.8,12.6c-5.72,5.6-9.93,9.98-12.64,13.15
		C1540.28,400.41,1518.63,428.42,1507.08,446.58z"/>
</g>
</svg>
