<?xml version="1.0" standalone="no"?>
<!DOCTYPE svg PUBLIC "-//W3C//DTD SVG 20010904//EN"
 "http://www.w3.org/TR/2001/REC-SVG-20010904/DTD/svg10.dtd">
<svg version="1.0" xmlns="http://www.w3.org/2000/svg"
 width="1867.000000pt" height="1867.000000pt" viewBox="0 0 1867.000000 1867.000000"
 preserveAspectRatio="xMidYMid meet">
<metadata>
Created by potrace 1.14, written by Peter Selinger 2001-2017
</metadata>
<g transform="translate(0.000000,1867.000000) scale(0.100000,-0.100000)"
fill="#000000" stroke="none">
<path d="M9175 12140 l-7330 -5 0 -830 0 -830 193 -2 192 -2 0 638 c0 502 3
640 13 643 6 2 3191 4 7077 4 l7065 -1 0 -642 0 -642 192 0 193 0 1 697 c1
971 1 963 -4 969 -9 8 -191 8 -7592 3z"/>
<path d="M15547 11474 c-2 -2 -48 -6 -103 -9 -54 -3 -115 -8 -134 -10 -19 -2
-62 -7 -95 -10 -33 -3 -67 -8 -75 -10 -8 -2 -37 -7 -65 -11 -27 -3 -59 -8 -70
-11 -11 -2 -33 -7 -50 -9 -16 -3 -57 -12 -90 -20 -33 -8 -71 -17 -85 -20 -137
-26 -477 -170 -555 -234 -88 -74 -144 -135 -169 -186 -49 -99 -32 -187 49
-266 37 -35 46 -41 115 -71 42 -18 173 -46 250 -53 119 -12 163 -14 388 -18
230 -5 272 -9 272 -26 0 -11 -22 -17 -89 -25 -30 -4 -61 -8 -70 -10 -9 -1 -38
-6 -66 -10 -77 -11 -78 -12 -105 -18 -14 -4 -40 -9 -57 -12 -64 -10 -128 -23
-128 -25 0 -1 -7 -3 -16 -5 -56 -11 -201 -52 -299 -84 -140 -47 -220 -82 -355
-155 -58 -32 -167 -120 -206 -167 -56 -68 -80 -119 -86 -187 -13 -131 70 -220
272 -291 60 -21 76 -24 195 -40 93 -12 393 -5 516 13 18 3 63 8 100 11 38 4
72 9 75 11 3 2 24 6 45 9 21 2 50 7 64 10 14 3 36 7 50 10 21 3 68 13 140 30
167 40 316 92 439 152 90 44 127 69 182 123 38 37 69 74 69 83 0 10 4 17 8 17
5 0 16 30 25 68 30 114 27 171 -6 144 -21 -17 -288 -148 -387 -190 -83 -35
-266 -100 -295 -106 -5 -1 -16 -5 -22 -9 -7 -5 -13 -6 -13 -3 0 3 -11 1 -25
-4 -25 -9 -39 -13 -100 -25 -16 -3 -46 -10 -66 -16 -37 -9 -56 -13 -144 -24
-27 -3 -61 -8 -75 -11 -14 -3 -115 -8 -225 -10 -169 -3 -212 -1 -280 15 -115
27 -151 44 -172 86 -35 67 48 154 243 256 84 44 198 95 234 104 8 3 53 18 100
35 84 30 248 77 299 86 14 3 35 8 46 11 11 3 29 7 40 9 21 2 61 10 105 19 14
3 43 8 65 10 22 3 57 8 78 10 20 3 54 7 75 10 20 2 63 7 95 10 125 11 197 35
252 83 23 19 59 69 68 94 8 22 -23 56 -59 63 -16 3 -203 8 -416 10 -498 5
-712 14 -788 32 -14 3 -31 7 -39 9 -69 14 -101 34 -101 65 0 48 157 140 355
208 86 29 225 69 262 76 18 3 44 10 58 15 14 5 29 9 33 8 4 -1 21 1 37 5 56
12 108 21 190 32 28 3 66 8 85 11 100 14 384 3 403 -16 5 -4 -20 -22 -55 -39
-84 -43 -182 -109 -197 -133 -10 -16 -9 -17 6 -9 27 15 103 47 148 62 22 7 45
16 50 20 6 4 71 25 145 48 74 23 142 45 150 48 8 3 21 7 27 9 54 11 103 39
110 63 7 22 9 100 4 189 -3 51 -63 78 -193 88 -114 8 -328 10 -328 2 0 -4 -13
-3 -29 2 -16 4 -31 6 -34 4z"/>
<path d="M5387 11434 c-2 -2 -17 -6 -33 -8 -16 -2 -45 -7 -64 -10 -19 -4 -42
-8 -50 -10 -35 -6 -365 -106 -470 -142 -8 -3 -17 -6 -20 -6 -3 -1 -36 -12 -75
-25 -38 -14 -77 -26 -85 -28 -8 -2 -24 -7 -34 -11 -55 -22 89 88 158 120 24
11 35 21 29 27 -17 17 -286 -106 -413 -189 -116 -75 -239 -189 -291 -271 -32
-49 -39 -111 -15 -130 17 -14 69 -6 149 23 34 13 125 47 202 75 77 29 167 61
200 72 33 11 69 24 80 29 20 9 60 22 80 26 11 2 134 38 183 53 18 5 35 10 37
10 3 0 29 7 58 15 28 9 66 17 82 20 17 2 32 5 35 7 3 1 10 3 15 4 6 1 21 5 35
8 120 30 181 -3 147 -79 -24 -56 -154 -238 -232 -328 -5 -6 -35 -40 -65 -76
-30 -36 -59 -70 -65 -76 -5 -6 -37 -42 -70 -79 -33 -38 -69 -79 -80 -91 -11
-12 -49 -55 -85 -95 -61 -69 -167 -181 -288 -307 -29 -30 -62 -68 -73 -84
l-21 -29 40 -38 c40 -38 110 -78 153 -86 31 -6 96 26 149 75 25 23 65 58 90
78 25 21 52 44 60 53 13 14 185 164 264 230 16 13 38 33 50 44 12 11 43 37 68
58 26 21 53 43 60 50 14 13 187 149 229 179 13 10 49 36 79 58 30 22 60 43 65
48 40 33 315 209 380 243 44 22 85 45 91 50 13 11 122 39 149 39 85 -1 47 -58
-200 -305 -273 -273 -396 -411 -517 -585 -49 -70 -132 -220 -122 -220 4 0 2
-6 -4 -12 -17 -21 -30 -117 -22 -154 26 -113 167 -161 341 -115 83 22 276 104
289 122 3 4 12 9 19 11 8 2 71 37 140 79 69 42 137 82 150 90 14 8 30 18 35
22 6 5 49 34 96 65 90 60 86 54 81 135 -1 21 -15 22 -35 2 -8 -8 -17 -15 -20
-15 -3 0 -29 -15 -58 -34 -94 -59 -263 -145 -339 -172 -98 -35 -193 -37 -238
-5 -30 21 -34 31 -33 76 1 57 33 122 110 223 59 80 286 312 451 462 147 134
292 277 334 331 95 120 93 217 -9 326 -48 51 -85 60 -163 38 -114 -33 -326
-140 -550 -280 -58 -37 -412 -278 -436 -297 -5 -4 -86 -65 -180 -135 -93 -70
-177 -133 -185 -140 -8 -7 -51 -40 -95 -75 -44 -34 -82 -65 -85 -68 -3 -3 -25
-21 -50 -40 -25 -19 -47 -37 -50 -40 -3 -3 -30 -25 -60 -50 -30 -25 -57 -47
-60 -50 -3 -3 -16 -14 -30 -25 -20 -17 -20 -14 5 15 30 35 71 82 110 124 26
29 145 163 168 190 10 12 37 41 60 66 23 25 71 79 106 120 36 41 70 80 75 85
6 6 36 39 66 75 30 36 57 67 61 70 17 15 172 214 207 266 54 79 92 162 92 200
0 57 -54 105 -135 119 -43 8 -202 14 -208 9z"/>
<path d="M3540 11388 c-97 -19 -103 -21 -130 -30 -8 -3 -49 -15 -90 -28 -142
-42 -441 -172 -460 -199 -3 -4 -21 -16 -40 -27 -19 -10 -37 -22 -40 -25 -3 -3
-14 -12 -26 -20 -73 -50 -216 -186 -283 -269 -20 -25 -39 -47 -42 -50 -4 -3
-21 -29 -39 -58 -24 -40 -30 -59 -25 -79 17 -70 205 -186 288 -178 61 6 230
90 325 162 49 37 29 51 -40 29 -85 -26 -151 -36 -164 -23 -51 51 95 216 301
339 118 70 288 153 375 183 3 1 12 4 20 8 44 17 122 37 171 45 98 15 158 -17
159 -85 0 -34 -36 -122 -76 -189 -20 -32 -45 -75 -56 -94 -21 -36 -149 -224
-215 -315 -39 -55 -216 -277 -236 -297 -7 -7 -49 -54 -93 -103 -116 -132 -135
-153 -180 -200 -86 -91 -136 -155 -132 -172 2 -10 37 -34 88 -59 102 -50 111
-48 185 34 29 31 71 77 93 102 40 44 42 51 25 95 -2 6 20 35 49 66 29 30 87
93 128 140 41 46 80 89 85 95 232 252 472 632 530 836 47 166 -4 303 -134 360
-65 29 -198 31 -321 6z"/>
<path d="M10708 11405 c-2 -2 -25 -6 -53 -9 -27 -4 -77 -14 -110 -22 -33 -9
-67 -18 -75 -20 -47 -11 -205 -66 -217 -75 -7 -6 -13 -9 -13 -6 0 18 -321
-142 -357 -178 -8 -8 -18 -15 -22 -15 -4 0 -17 -8 -28 -17 -12 -10 -38 -31
-59 -48 -101 -77 -286 -284 -324 -363 -16 -31 -16 -40 -5 -62 38 -73 191 -164
275 -164 45 0 163 50 251 106 20 13 50 31 66 42 36 22 60 56 41 56 -7 0 -43
-9 -81 -19 -37 -11 -67 -18 -67 -16 0 3 -10 1 -22 -4 -38 -14 -68 3 -64 36 6
59 59 125 171 213 63 50 290 186 325 195 3 1 36 16 73 33 221 103 403 131 446
69 30 -42 21 -84 -41 -206 -33 -64 -63 -117 -69 -119 -5 -2 -9 -8 -9 -14 0
-20 -252 -378 -272 -386 -4 -2 -8 -10 -8 -17 0 -7 -3 -15 -7 -17 -5 -1 -35
-37 -68 -78 -33 -41 -66 -81 -75 -90 -8 -9 -28 -31 -44 -50 -15 -19 -63 -73
-105 -119 -42 -46 -83 -92 -91 -101 -8 -9 -46 -52 -85 -95 -92 -102 -107 -125
-93 -143 10 -12 125 -69 171 -85 15 -6 85 42 96 66 1 5 32 38 67 75 61 63 64
69 59 104 -4 31 -1 42 22 66 56 58 149 160 198 216 28 32 59 68 70 81 75 83
260 328 300 397 6 10 29 50 53 90 105 176 153 302 158 413 3 67 0 87 -20 131
-13 29 -33 61 -44 72 -18 18 -76 54 -92 57 -3 1 -21 6 -41 12 -31 9 -173 15
-181 8z"/>
<path d="M12489 11376 c-2 -2 -42 -7 -89 -11 -46 -4 -95 -11 -108 -16 -17 -6
-21 -6 -16 3 4 6 3 8 -2 5 -8 -5 -78 -18 -229 -43 -64 -11 -184 -36 -260 -56
-44 -11 -90 -22 -101 -24 -47 -9 -323 -104 -386 -133 -101 -47 -155 -107 -182
-201 -55 -197 3 -245 224 -184 52 14 103 28 113 29 9 2 21 6 25 9 13 8 245 66
275 68 15 1 27 5 27 9 0 7 -90 4 -170 -6 -25 -3 -74 -7 -109 -10 -35 -3 -67
-8 -72 -10 -4 -3 -14 -2 -23 1 -24 9 -3 31 37 40 18 3 37 10 42 14 6 4 21 10
35 13 14 2 90 21 170 42 80 20 156 38 170 40 14 2 36 7 50 10 31 7 77 15 110
20 14 2 36 6 50 9 13 3 42 8 65 11 22 3 47 8 55 10 8 2 46 7 84 10 38 3 73 8
77 11 4 2 10 0 14 -5 3 -5 -1 -13 -9 -18 -45 -26 -468 -439 -627 -614 -149
-162 -320 -378 -356 -449 -10 -19 -21 -37 -24 -40 -25 -19 -42 -184 -23 -229
24 -58 51 -66 219 -66 131 1 316 11 365 20 9 2 41 6 70 10 29 4 62 9 74 11 12
2 37 7 56 10 216 35 560 134 717 205 24 10 45 19 48 19 2 0 37 16 76 35 40 19
78 35 85 35 7 0 14 4 16 8 3 7 92 59 171 99 15 8 27 19 27 24 0 5 5 9 11 9 11
0 111 74 157 117 115 106 154 148 193 208 74 115 101 195 105 313 3 107 -16
191 -61 268 -33 57 -142 174 -162 174 -7 0 -13 4 -13 9 0 4 -21 19 -47 32 -27
13 -50 27 -53 30 -18 23 -318 106 -407 113 -15 1 -33 4 -38 7 -11 6 -440 10
-446 5z m506 -339 c17 -3 53 -8 80 -12 28 -4 58 -11 68 -16 9 -6 17 -7 17 -5
0 9 136 -43 182 -69 146 -83 201 -235 139 -387 -13 -32 -27 -58 -31 -58 -5 0
-11 -8 -14 -18 -14 -42 -172 -180 -286 -249 -67 -41 -294 -150 -330 -158 -8
-2 -59 -20 -112 -39 -82 -30 -215 -68 -281 -82 -10 -2 -26 -5 -35 -8 -52 -16
-312 -55 -402 -61 -262 -18 -400 0 -400 51 0 32 45 96 192 275 84 102 171 205
193 229 50 54 245 258 304 318 152 153 188 213 163 267 -9 20 -8 24 6 28 23 5
509 0 547 -6z"/>
<path d="M8506 11233 c-1 -1 -33 -5 -72 -8 -38 -3 -87 -8 -109 -11 -22 -3 -47
-6 -55 -6 -8 0 -40 -4 -70 -8 -30 -5 -73 -12 -95 -15 -33 -5 -214 -41 -250
-49 -5 -2 -23 -6 -40 -10 -77 -19 -227 -72 -290 -102 -92 -44 -154 -96 -203
-169 -66 -99 -89 -160 -99 -263 l-6 -63 45 -42 c24 -23 62 -48 83 -55 22 -7
45 -14 50 -16 6 -2 17 -6 25 -9 13 -5 122 -38 143 -43 4 -1 8 -2 10 -4 3 -2
17 -5 112 -25 44 -9 87 -19 95 -22 8 -3 18 -6 22 -5 4 1 30 -3 59 -8 29 -6 77
-13 107 -16 31 -3 64 -7 74 -9 11 -2 47 -7 81 -10 34 -4 69 -11 78 -16 9 -4
19 -6 22 -3 5 6 101 -18 192 -47 88 -28 179 -76 227 -118 l41 -37 -64 -31
c-268 -130 -530 -167 -1174 -167 -352 0 -426 2 -447 15 -16 10 -1 27 27 32 11
1 25 5 30 9 6 3 25 9 43 13 28 6 44 23 25 26 -68 11 -215 -10 -277 -41 -52
-25 -102 -69 -150 -133 -105 -140 24 -214 424 -244 186 -14 566 -8 770 12 83
8 158 16 180 20 14 3 45 7 69 10 60 7 246 43 316 61 11 3 27 7 35 9 8 2 16 4
18 5 1 2 5 3 10 5 100 28 248 112 317 180 127 127 131 262 8 364 -70 59 -275
149 -448 196 -27 8 -75 21 -105 30 -72 20 -233 55 -350 75 -30 6 -66 12 -80
15 -14 3 -41 8 -60 11 -35 6 -140 28 -195 40 -73 17 -96 64 -56 116 53 67 327
163 551 193 25 3 56 8 70 10 14 3 48 7 75 10 28 3 61 8 75 10 25 4 162 14 270
20 135 8 374 5 383 -4 11 -11 -36 -34 -118 -61 -79 -25 -209 -101 -219 -128
-12 -28 26 -21 140 24 65 25 123 47 129 49 5 1 30 8 55 15 25 7 50 14 55 16 6
1 30 7 55 14 25 7 52 14 60 15 8 2 15 4 15 5 0 1 10 3 22 6 38 7 128 44 149
62 24 20 57 68 62 91 14 61 17 99 8 118 -10 24 -72 58 -121 67 -16 3 -39 7
-50 9 -62 14 -190 20 -433 21 -151 1 -275 0 -276 -1z"/>
<path d="M1142 10437 c-24 -62 -47 -121 -52 -132 -5 -11 -39 -96 -76 -190 -36
-93 -69 -173 -73 -178 -4 -4 -30 0 -59 8 -28 9 -54 15 -57 15 -3 0 -19 7 -35
15 -17 9 -30 13 -30 11 0 -3 -19 2 -42 10 -24 9 -54 18 -67 20 -14 3 -28 7
-32 10 -9 5 -205 64 -232 69 -9 2 -22 7 -27 10 -6 4 -21 8 -35 11 l-25 4 35
-59 c19 -33 35 -64 35 -70 0 -6 5 -11 10 -11 6 0 10 -4 10 -9 0 -7 140 -256
170 -301 6 -8 16 -26 22 -40 7 -14 20 -36 30 -49 10 -13 18 -27 18 -31 0 -8
-166 -130 -176 -130 -3 0 -11 -6 -19 -12 -7 -7 -50 -38 -95 -68 -45 -30 -101
-69 -125 -87 -23 -18 -45 -29 -49 -26 -3 4 -6 2 -6 -4 0 -5 -16 -18 -35 -29
-19 -10 -35 -22 -35 -26 0 -4 21 -10 48 -14 26 -3 56 -9 67 -11 11 -3 31 -6
45 -7 51 -6 134 -18 154 -22 38 -9 60 -12 115 -18 30 -4 64 -9 75 -11 12 -2
39 -7 61 -11 22 -3 47 -7 55 -9 8 -2 21 -4 28 -4 7 -1 11 -4 9 -8 -3 -5 -8
-53 -12 -108 -3 -55 -8 -122 -11 -150 -2 -27 -6 -81 -9 -120 -12 -197 -17
-261 -22 -267 -2 -5 -1 -8 4 -8 8 0 37 25 198 175 55 51 129 119 164 151 35
33 75 71 89 87 14 15 30 27 36 27 13 0 62 -43 337 -300 27 -25 69 -64 93 -86
69 -65 68 -65 61 28 -3 45 -8 112 -10 148 -2 36 -6 92 -9 125 -3 33 -8 96 -11
140 -3 44 -7 99 -9 123 -2 23 -1 42 3 43 3 0 15 2 26 5 11 2 36 6 55 9 19 2
75 11 124 19 49 8 93 13 97 10 4 -2 10 0 14 6 4 6 10 8 13 6 4 -2 29 0 55 5
26 5 69 11 95 15 45 5 61 8 142 23 l35 7 -45 29 c-25 17 -47 32 -50 35 -3 3
-61 43 -130 90 -69 46 -156 106 -195 133 -38 27 -83 56 -98 65 -22 14 -26 22
-22 42 4 14 11 27 16 28 5 2 9 8 9 12 0 5 41 79 90 164 50 86 90 161 90 166 0
6 4 10 9 10 5 0 13 10 17 22 3 12 24 51 46 86 21 35 37 66 34 69 -2 3 -29 -3
-58 -13 -29 -10 -57 -19 -63 -20 -5 -2 -41 -12 -80 -24 -38 -11 -74 -22 -80
-24 -38 -10 -259 -79 -298 -92 -26 -9 -50 -15 -52 -12 -2 2 -20 46 -40 97 -19
52 -43 110 -51 130 -9 20 -20 45 -24 56 -4 11 -33 83 -64 160 -32 77 -58 145
-60 152 -6 29 -13 16 -54 -90z m58 -307 c0 -8 62 -174 99 -265 40 -97 45 -106
60 -102 9 3 77 24 151 47 74 23 140 42 145 44 6 1 15 4 20 7 6 4 22 9 37 13
22 5 25 3 21 -14 -3 -11 -9 -20 -14 -20 -5 0 -9 -5 -9 -10 0 -6 -39 -79 -87
-162 -82 -144 -85 -152 -67 -165 10 -7 27 -20 37 -28 9 -8 20 -15 23 -15 3 0
35 -21 72 -47 37 -26 93 -64 125 -85 58 -39 71 -57 40 -56 -10 0 -31 -2 -48
-5 -16 -3 -52 -9 -80 -13 -27 -5 -52 -9 -55 -9 -3 -1 -32 -5 -65 -10 -33 -5
-63 -10 -67 -11 -5 -1 -22 -2 -39 -3 l-31 -1 6 -97 c7 -99 14 -189 20 -275 2
-27 2 -48 -1 -48 -2 0 -14 10 -27 23 -25 24 -116 109 -216 200 l-63 58 -66
-63 c-36 -34 -83 -78 -105 -98 -21 -19 -50 -46 -65 -60 -15 -14 -37 -34 -50
-45 l-22 -19 5 74 c23 303 24 344 9 346 -7 1 -16 3 -20 4 -5 1 -11 2 -14 2 -3
-1 -46 6 -95 14 -49 8 -102 16 -119 18 -79 10 -131 19 -138 23 -8 5 37 37 193
141 47 31 91 63 98 69 7 7 20 16 28 21 12 7 -1 35 -71 155 -47 80 -85 149 -85
153 0 3 -9 19 -21 35 -11 16 -18 29 -14 29 3 0 48 -13 98 -29 183 -58 299 -93
301 -89 1 1 12 30 25 63 13 33 29 74 37 92 8 17 14 33 14 36 0 2 8 22 17 43 9
22 17 41 18 44 1 3 5 14 9 25 4 11 12 32 18 48 10 26 28 37 28 17z"/>
<path d="M17456 10462 c-15 -42 -34 -90 -41 -107 -7 -16 -37 -91 -66 -165 -28
-74 -56 -139 -60 -144 -5 -6 -9 -16 -9 -24 0 -11 -25 -73 -35 -90 -1 -1 -33 7
-70 19 -37 11 -76 22 -86 24 -10 2 -27 9 -38 15 -12 6 -21 8 -21 4 0 -3 -6 -1
-14 5 -8 6 -18 11 -22 9 -5 -1 -49 10 -99 26 -142 44 -238 74 -262 81 -24 6
-30 -4 -14 -21 8 -8 21 -30 73 -124 11 -19 27 -48 37 -65 20 -33 49 -84 82
-142 19 -34 51 -89 111 -189 l18 -32 -187 -128 c-103 -71 -228 -156 -276 -189
-87 -58 -88 -60 -60 -67 15 -4 48 -10 73 -12 25 -3 45 -5 45 -6 0 -1 9 -3 20
-4 98 -14 184 -27 205 -31 14 -2 41 -7 60 -9 19 -3 48 -8 64 -11 15 -3 49 -8
75 -10 25 -2 47 -5 49 -6 3 -2 19 -6 31 -8 6 0 8 -27 5 -58 -8 -119 -15 -214
-29 -408 -3 -44 -8 -106 -10 -137 -6 -61 0 -70 26 -40 9 9 56 54 106 99 49 46
108 100 130 120 132 124 217 198 227 198 7 0 59 -43 116 -95 56 -52 114 -106
129 -119 14 -13 71 -66 126 -117 55 -51 105 -93 110 -93 6 0 9 9 8 22 0 12 -4
72 -7 132 -4 61 -9 126 -11 145 -7 51 -17 205 -19 284 -1 66 0 69 24 72 35 5
160 25 190 30 14 2 45 7 70 10 47 5 78 10 120 19 14 3 45 8 70 11 25 3 52 7
60 8 8 2 36 6 63 11 26 4 47 10 47 14 0 3 -25 22 -55 41 -30 19 -55 38 -55 43
0 4 -4 7 -10 7 -7 0 -203 129 -245 162 -5 5 -41 29 -80 54 -98 65 -97 64 -80
94 8 14 18 32 22 40 4 8 26 47 48 85 23 39 44 77 48 85 4 8 15 29 26 45 44 72
141 244 141 250 0 3 7 13 15 22 34 34 11 29 -235 -49 -52 -17 -99 -31 -105
-32 -5 -1 -16 -5 -22 -9 -7 -5 -13 -6 -13 -2 0 3 -9 1 -21 -5 -11 -7 -30 -13
-42 -16 -12 -2 -58 -15 -101 -29 -44 -14 -83 -22 -86 -18 -4 5 -30 67 -58 138
-28 72 -57 144 -63 160 -7 17 -13 32 -14 35 -1 3 -7 19 -14 35 -7 17 -24 59
-38 95 -40 104 -56 140 -62 140 -3 0 -19 -35 -35 -78z m54 -345 c0 -15 129
-339 138 -349 4 -4 95 20 202 52 107 33 196 60 197 60 5 0 -50 -95 -63 -111
-8 -8 -14 -19 -14 -22 0 -4 -29 -57 -64 -119 l-64 -111 36 -27 c21 -14 89 -61
152 -103 144 -97 166 -114 149 -114 -16 0 -102 -11 -139 -17 -58 -10 -246 -39
-256 -39 -8 0 -11 -16 -8 -43 4 -54 13 -175 20 -278 3 -44 7 -83 10 -88 15
-23 -18 -1 -71 48 -66 62 -163 152 -210 196 l-30 28 -45 -41 c-25 -23 -90 -83
-145 -134 -55 -52 -104 -95 -109 -97 -9 -3 -9 61 -1 142 3 19 7 80 10 134 3
55 8 102 10 106 9 15 -13 29 -55 34 -25 3 -56 7 -70 10 -14 2 -46 7 -71 10
-25 4 -57 9 -70 11 -13 2 -46 6 -74 10 -27 3 -53 10 -58 14 -6 6 173 137 242
176 9 6 32 23 50 38 37 31 38 26 -12 109 -83 140 -154 268 -150 272 4 3 19 -1
83 -22 8 -3 20 -6 26 -7 15 -4 236 -72 254 -79 26 -10 35 5 83 129 25 66 52
134 58 150 7 17 13 32 14 35 13 37 27 60 35 55 5 -3 10 -12 10 -18z"/>
<path d="M8956 9353 c-1 -2 -54 -5 -117 -8 -63 -3 -132 -7 -154 -10 -22 -2
-71 -7 -110 -10 -83 -7 -165 -17 -261 -30 -23 -3 -59 -8 -80 -10 -22 -3 -47
-8 -57 -11 -10 -3 -34 -8 -55 -10 -59 -8 -67 -10 -80 -18 -6 -4 -12 -5 -12 -1
0 3 -16 -1 -35 -9 -19 -8 -35 -13 -35 -11 0 7 -123 -45 -169 -71 -64 -38 -125
-106 -166 -186 -19 -37 -32 -68 -30 -68 3 0 0 -11 -5 -25 -12 -30 -19 -65 -26
-122 -4 -36 -1 -46 20 -68 28 -28 13 -27 311 -29 99 -1 188 0 198 2 71 17 -91
56 -255 61 -50 2 -27 43 30 56 9 2 42 11 72 20 30 9 64 18 75 20 11 2 30 6 43
9 54 14 254 52 312 60 35 5 93 13 140 22 33 5 258 33 335 40 115 12 640 8 683
-5 2 -1 -122 -126 -275 -278 -289 -288 -397 -403 -535 -570 -321 -387 -417
-606 -297 -677 99 -58 233 17 374 210 11 15 39 52 63 82 23 30 42 58 42 62 0
4 -9 10 -20 13 -34 9 -33 33 2 83 18 25 38 53 43 62 20 32 238 318 280 369 5
7 15 18 20 25 6 7 24 29 40 49 17 19 46 55 65 79 94 117 197 235 295 335 111
113 152 177 140 218 -8 26 -59 140 -96 212 -52 103 -178 132 -582 138 -71 1
-130 1 -131 0z"/>
<path d="M15165 9352 c-1 -2 -45 -5 -96 -8 -128 -6 -196 -11 -244 -17 -22 -4
-71 -9 -110 -12 -38 -3 -81 -7 -95 -10 -14 -2 -47 -7 -75 -10 -367 -42 -580
-133 -668 -286 -36 -62 -75 -177 -83 -247 -5 -50 -3 -59 15 -76 11 -10 33 -20
48 -23 41 -5 420 -10 454 -5 52 8 31 27 -40 38 -20 3 -47 7 -61 10 -14 3 -50
7 -80 10 -78 7 -102 13 -94 25 6 11 64 38 93 44 9 2 45 11 81 20 36 10 72 19
80 20 8 2 15 4 15 5 0 1 9 3 20 5 11 1 34 5 50 9 103 20 144 28 175 32 19 2
58 8 85 14 28 5 70 12 95 15 25 3 59 8 75 10 17 3 53 7 80 10 28 3 64 8 80 10
138 21 795 26 795 7 0 -2 -127 -130 -283 -285 -292 -291 -401 -408 -566 -607
-69 -84 -178 -236 -220 -307 -78 -131 -103 -213 -85 -278 7 -27 62 -64 101
-69 38 -4 121 24 154 52 58 50 78 70 119 122 25 30 47 57 50 60 3 3 27 34 53
70 l47 64 -30 24 -30 24 21 26 c11 15 59 81 107 147 74 103 255 340 272 355 3
3 21 25 40 50 19 24 45 56 57 70 12 14 39 45 58 70 62 76 129 150 244 269 84
87 112 123 118 150 10 51 8 67 -15 114 -103 215 -93 200 -152 229 -30 15 -73
30 -95 33 -22 3 -51 7 -65 10 -53 11 -486 26 -495 17z"/>
<path d="M6050 9329 c-30 -4 -75 -10 -100 -13 -25 -3 -83 -13 -130 -22 -47 -9
-95 -18 -106 -20 -126 -23 -389 -108 -511 -164 -150 -69 -299 -185 -340 -265
-8 -14 -18 -25 -23 -25 -6 0 -10 -4 -10 -9 0 -6 -13 -29 -29 -53 -42 -63 -74
-144 -68 -170 17 -68 168 -51 442 49 80 29 125 49 340 148 39 18 82 36 95 40
14 4 30 11 35 15 6 3 33 15 60 25 28 9 64 23 80 31 60 26 197 64 230 64 64 0
46 -41 -58 -139 -33 -31 -76 -72 -97 -91 -20 -19 -67 -62 -105 -95 -37 -33
-73 -65 -79 -71 -6 -5 -36 -32 -66 -59 -166 -145 -249 -225 -393 -377 -37 -39
-126 -159 -132 -178 -4 -11 -10 -20 -14 -20 -4 0 -18 -29 -30 -65 -22 -61 -23
-94 -8 -165 7 -33 39 -80 70 -104 110 -84 271 -70 423 36 27 19 87 61 134 93
186 128 218 150 292 204 42 31 86 63 98 71 13 8 32 23 44 32 11 10 39 31 61
48 22 16 45 33 50 37 220 170 281 219 283 225 2 4 8 8 13 8 5 0 17 8 27 18 10
9 36 31 57 47 50 38 169 132 265 209 74 60 77 56 10 -14 -142 -148 -316 -354
-468 -555 -50 -66 -133 -220 -147 -272 -22 -80 -6 -174 38 -221 58 -63 199
-93 317 -68 57 12 67 15 120 38 30 14 57 24 60 24 7 -1 184 95 190 103 3 3 14
11 25 17 52 28 70 39 75 45 3 4 43 33 90 65 47 32 93 65 102 74 18 16 33 100
18 100 -9 0 -72 -32 -80 -40 -3 -3 -34 -20 -70 -38 -36 -19 -72 -38 -80 -43
-33 -20 -160 -77 -160 -72 0 3 -6 1 -12 -5 -7 -5 -44 -19 -82 -31 -69 -21
-128 -21 -167 -1 -26 15 -42 65 -33 107 4 21 8 40 8 43 6 28 143 260 165 280
4 3 26 32 51 65 42 56 62 83 85 109 6 6 37 43 70 81 33 39 64 75 70 81 5 6 48
53 95 104 47 51 99 107 115 125 162 176 202 227 214 270 17 62 -4 151 -44 192
-7 7 -29 15 -49 17 -28 4 -47 -3 -93 -33 -32 -21 -65 -44 -73 -52 -8 -8 -42
-36 -75 -64 -33 -27 -62 -52 -65 -55 -3 -3 -30 -25 -60 -50 -30 -25 -60 -49
-66 -55 -6 -5 -32 -28 -59 -50 -27 -22 -70 -58 -95 -80 -41 -35 -288 -237
-315 -257 -5 -4 -29 -23 -51 -40 -23 -18 -55 -43 -70 -55 -16 -13 -72 -54
-124 -92 -52 -39 -100 -75 -107 -80 -7 -6 -16 -11 -22 -11 -5 0 -11 -4 -13 -9
-4 -11 -321 -219 -441 -290 -70 -41 -99 -52 -137 -54 -60 -2 -80 13 -73 56 3
18 8 34 12 37 4 3 12 13 17 22 17 30 311 347 383 412 99 89 386 382 447 456
122 148 134 173 148 315 12 121 -41 159 -224 160 -63 1 -140 -2 -170 -6z"/>
<path d="M13075 9329 c-16 -5 -43 -11 -60 -14 -16 -3 -68 -17 -115 -31 -76
-23 -106 -34 -207 -76 -15 -6 -30 -12 -33 -12 -27 -6 -250 -130 -285 -158 -5
-4 -37 -29 -70 -56 -103 -80 -227 -213 -308 -329 -21 -29 -37 -57 -37 -62 0
-5 -7 -14 -15 -21 -30 -25 -15 -91 30 -132 38 -35 134 -98 149 -98 8 0 18 -5
22 -11 10 -17 84 -5 147 24 86 39 237 146 237 167 0 16 -4 17 -32 9 -183 -57
-208 -52 -180 34 11 36 35 68 91 126 90 91 132 125 243 191 46 27 88 53 93 57
12 9 194 98 203 99 4 0 16 4 27 9 11 4 35 14 54 22 31 12 72 20 145 28 17 1
44 -4 62 -13 36 -17 49 -59 39 -117 -11 -59 -178 -378 -209 -397 -6 -4 -8 -8
-4 -8 6 0 -83 -141 -142 -225 -114 -162 -266 -359 -441 -570 -21 -25 -96 -115
-110 -133 -6 -7 -11 -24 -12 -39 -2 -23 8 -31 86 -72 l87 -46 43 45 c82 86
157 184 157 205 0 12 -5 26 -10 31 -7 7 -1 20 17 41 43 48 62 72 132 158 35
44 67 82 70 85 32 27 252 338 320 454 44 75 122 221 126 236 1 3 11 26 23 52
114 254 86 455 -74 534 -43 21 -204 29 -259 13z"/>
<path d="M4145 9270 c-44 -10 -105 -25 -135 -35 -30 -11 -57 -19 -60 -20 -3
-1 -18 -7 -33 -13 -16 -7 -30 -12 -32 -12 -6 0 -226 -108 -280 -138 -179 -97
-403 -267 -529 -401 -28 -29 -60 -63 -71 -75 -11 -11 -43 -52 -71 -91 -151
-205 -197 -388 -150 -602 9 -44 49 -143 57 -143 4 0 10 -8 14 -19 10 -32 98
-115 155 -148 97 -54 184 -75 309 -74 80 1 205 18 261 36 10 3 27 8 37 10 130
26 442 188 558 290 80 71 144 136 222 228 93 109 233 356 249 437 0 3 4 12 7
20 16 36 34 153 31 195 -13 159 -142 253 -341 249 -95 -2 -165 -10 -227 -25
-21 -6 -40 -8 -42 -6 -3 3 59 26 86 32 3 0 21 6 41 13 80 28 206 47 356 56 18
2 35 5 39 8 8 8 -40 91 -84 145 -71 89 -200 118 -367 83z m201 -435 c39 -7 76
-46 89 -93 10 -34 6 -94 -9 -167 -8 -34 -92 -209 -110 -228 -6 -7 -22 -26 -34
-43 -55 -79 -232 -262 -317 -328 -27 -22 -54 -44 -60 -50 -10 -11 -100 -72
-208 -140 -31 -20 -64 -36 -72 -36 -8 0 -15 -4 -15 -9 0 -12 -165 -79 -235
-94 -112 -25 -233 -6 -296 45 -61 50 -69 160 -20 286 18 45 38 88 44 95 7 7
21 30 32 52 64 129 281 393 400 488 l39 32 -41 -55 c-45 -61 -94 -146 -124
-218 -19 -46 -18 -45 93 68 119 120 148 147 195 177 15 9 30 20 33 23 21 22
183 108 265 140 72 28 146 49 205 57 19 3 36 6 38 8 4 3 71 -3 108 -10z"/>
<path d="M11457 9264 c-1 -1 -63 -5 -137 -9 -144 -7 -164 -8 -280 -20 -41 -4
-93 -9 -115 -11 -22 -1 -40 -3 -40 -4 0 -1 -11 -3 -25 -5 -65 -7 -147 -17
-170 -20 -14 -2 -45 -7 -70 -10 -56 -8 -98 -14 -130 -20 -14 -2 -45 -7 -70
-11 -25 -4 -54 -8 -65 -10 -11 -2 -33 -5 -50 -8 -32 -5 -74 -13 -115 -21 -14
-3 -38 -8 -55 -11 -114 -20 -196 -54 -275 -113 -115 -85 -271 -324 -255 -389
17 -67 62 -76 195 -40 103 28 145 37 185 43 11 2 38 8 60 13 22 6 58 13 80 16
22 3 51 7 65 10 14 3 35 8 48 10 40 8 46 18 17 30 -17 7 -88 11 -187 9 -178
-2 -182 4 -37 46 41 12 88 26 104 30 31 10 67 18 120 27 17 2 38 7 48 10 10 3
32 7 50 9 18 2 46 6 62 9 42 7 116 18 140 21 11 1 47 5 80 9 56 7 82 11 145
21 14 2 57 7 95 10 39 4 84 9 100 11 30 3 115 12 190 18 22 2 74 7 115 11 136
12 164 12 221 1 72 -15 93 -35 86 -82 -6 -36 -87 -180 -124 -221 -13 -13 -23
-26 -23 -29 0 -12 -153 -187 -245 -281 l-100 -102 -190 -4 c-104 -3 -201 -8
-215 -11 -14 -3 -38 -8 -55 -11 -16 -3 -52 -10 -80 -15 -70 -13 -103 -19 -155
-26 -25 -3 -48 -8 -51 -10 -3 -2 -21 -6 -40 -9 -135 -22 -132 -20 -181 -95
-83 -125 -71 -130 307 -116 94 4 213 9 265 11 l95 5 -35 -31 c-19 -17 -51 -46
-70 -63 -19 -17 -62 -54 -95 -81 -32 -28 -66 -57 -75 -65 -9 -8 -28 -24 -41
-35 -110 -90 -118 -95 -152 -95 -50 0 -183 -36 -254 -69 -84 -40 -173 -102
-236 -164 -115 -114 -132 -147 -99 -188 17 -20 28 -24 74 -23 29 1 78 12 108
24 74 29 222 102 238 118 7 6 20 12 28 12 8 0 14 5 14 10 0 6 4 10 9 10 18 0
301 182 339 218 8 6 23 17 35 23 12 7 29 18 37 26 8 7 53 43 100 79 136 104
191 150 299 251 31 29 65 53 76 54 11 0 76 2 145 4 l124 2 122 129 122 129
-138 5 -138 5 51 56 c300 323 544 679 552 804 8 112 -55 161 -230 181 -52 6
-244 12 -248 8z"/>
<path d="M1847 8153 c-3 -7 -2 -1632 2 -1658 1 -6 59 -9 158 -8 87 1 3444 2
7461 3 l7302 0 0 835 0 835 -190 0 c-145 0 -190 -3 -191 -12 -1 -7 -2 -296 -3
-643 l-1 -630 -7075 0 -7075 0 -3 643 -2 642 -189 0 c-105 0 -191 -3 -194 -7z"/>
</g>
</svg>
