<?xml version="1.0" encoding="utf-8"?>
<!-- Generator: Adobe Illustrator 28.1.0, SVG Export Plug-In . SVG Version: 6.00 Build 0)  -->
<svg version="1.1" id="Layer_1" xmlns="http://www.w3.org/2000/svg" xmlns:xlink="http://www.w3.org/1999/xlink" x="0px" y="0px"
	 viewBox="0 0 1867 587" style="enable-background:new 0 0 1867 587;" xml:space="preserve">
<style type="text/css">
	.st0{fill:#FFFFFF;}
</style>
<path class="st0" d="M236.08,310.95l-55.05-37.63l33.18-57.84l-63.74,19.57l-24.53-62.01l-24.44,62.04L37.73,215.6l33.27,57.79
	L16,311.11l65.92,10.02l-4.8,66.51l48.94-45.29l49,45.22l-4.9-66.5L236.08,310.95z M126.05,319.32l-30.76,28.47l3.02-41.8
	l-41.44-6.3l34.57-23.7l-20.91-36.32l40.08,12.24l15.36-39l15.42,38.97l40.07-12.3l-20.86,36.35l34.6,23.65l-41.43,6.36l3.08,41.8
	L126.05,319.32z"/>
<path class="st0" d="M1855,310.95l-55.05-37.63l33.18-57.84l-63.74,19.57l-24.53-62.01l-24.44,62.04l-63.77-19.48l33.27,57.79
	l-54.99,37.71l65.92,10.02l-4.8,66.51l48.94-45.29l49,45.22l-4.9-66.5L1855,310.95z M1744.98,319.32l-30.76,28.47l3.02-41.8
	l-41.44-6.3l34.57-23.7l-20.91-36.32l40.08,12.24l15.36-39l15.42,38.97l40.07-12.3l-20.86,36.35l34.6,23.65l-41.43,6.36l3.08,41.8
	L1744.98,319.32z"/>
<g>
	<rect x="191.25" y="15.45" class="st0" width="38.21" height="165.71"/>
	
		<rect x="932.19" y="-687.28" transform="matrix(-3.501625e-07 -1 1 -3.501625e-07 916.7411 985.848)" class="st0" width="38.21" height="1443.68"/>
	<rect x="1634.92" y="15.45" class="st0" width="38.21" height="165.71"/>
</g>
<g>
	
		<rect x="1634.92" y="410.7" transform="matrix(-1 5.648981e-07 -5.648981e-07 -1 3308.0554 987.1194)" class="st0" width="38.21" height="165.71"/>
	
		<rect x="893.98" y="-164.53" transform="matrix(3.501626e-07 1 -1 3.501626e-07 1470.3949 -355.7732)" class="st0" width="38.21" height="1443.68"/>
	
		<rect x="191.25" y="410.7" transform="matrix(-1 5.648981e-07 -5.648981e-07 -1 420.7021 987.1203)" class="st0" width="38.21" height="165.71"/>
</g>
<g>
	<path class="st0" d="M289.07,264.96l-12.09-5.85c-1.82-1.04-2.73-2.12-2.73-3.25c0-1.12,3.05-5.02,9.17-11.69
		c4.42-4.76,10.36-11.3,17.84-19.62c7.47-8.31,13.49-15.15,18.04-20.52c4.55-5.37,10.11-12.41,16.67-21.11
		c6.56-8.7,12.58-17.21,18.04-25.53c12.61-19.14,18.92-31.35,18.92-36.63c0-6.24-3.64-9.36-10.92-9.36c-5.46,0-13.23,1.84-23.3,5.52
		c-10.08,3.68-20.51,8.51-31.3,14.49c-10.79,5.98-19.76,12.21-26.91,18.71c-7.15,6.5-10.73,12.21-10.73,17.15
		c0,0.78,0.32,1.36,0.98,1.75c0.65,0.39,1.82,0.58,3.51,0.58c3.12,0,8.19-1.21,15.21-3.64c3.12-1.04,4.68-0.86,4.68,0.52
		c0,1.39-4.94,4.96-14.82,10.72c-9.88,5.76-17.16,8.64-21.84,8.64c-4.03,0-9.65-2.32-16.87-6.95s-10.82-8.86-10.82-12.67
		c0-1.47,2.01-4.98,6.05-10.52c4.03-5.54,9.55-11.8,16.58-18.77c7.02-6.97,14.43-13.01,22.23-18.12
		c8.97-5.98,19.21-11.3,30.71-15.98c11.51-4.68,22.55-8.32,33.15-10.91c10.59-2.6,19.14-3.9,25.64-3.9c9.36,0,16.67,2.36,21.94,7.08
		c5.26,4.72,7.9,11.32,7.9,19.81c0,11.26-6.63,27.54-19.89,48.85c-13.26,21.3-33.67,46.25-61.23,74.83c0.39,0.87,0.85,1.8,1.37,2.79
		c0.52,1,0.78,1.93,0.78,2.79c0,0.17-0.19,0.5-0.58,0.97c-0.39,0.48-0.85,0.98-1.37,1.49c-0.52,0.52-0.85,0.87-0.98,1.04
		l-14.23,15.59c-1.56,1.82-3.19,2.73-4.88,2.73C291.4,266,290.11,265.65,289.07,264.96z"/>
	<path class="st0" d="M445.5,210.91c23.27-25.38,40.66-45.36,52.17-59.95c11.51-14.59,17.26-23.88,17.26-27.87
		c0-1.47-0.78-2.68-2.34-3.64c-1.56-0.95-3.38-1.43-5.46-1.43c-4.03,0-15.41,2.6-34.13,7.79c-15.47,4.33-26.78,7.77-33.93,10.33
		c-7.15,2.56-17,6.22-29.54,10.98c-12.55,4.77-19.73,7.15-21.55,7.15c-3.64,0-5.46-1.69-5.46-5.07c0-6.41,6.31-15.03,18.92-25.85
		c12.61-10.83,29.57-20.31,50.9-28.45c2.6-1.13,3.9-1.04,3.9,0.26c0,0.43-1.56,1.43-4.68,2.99c-3.12,1.56-5.88,3.14-8.29,4.74
		c-2.41,1.6-5.1,4.01-8.09,7.21c27.3-9.09,47.35-15.5,60.16-19.23c12.8-3.72,23.76-5.59,32.86-5.59c7.93,0,14.17,1.1,18.72,3.31
		c4.55,2.21,6.83,5.39,6.83,9.55c0,3.64-2.18,8.92-6.53,15.85c-4.36,6.93-10.7,15.35-19.01,25.27c-8.32,9.92-16.8,19.73-25.45,29.43
		c-8.65,9.7-24.28,27.24-46.9,52.61c25.22-21.05,48.43-39.45,69.62-55.21c21.19-15.76,39.65-28.58,55.38-38.45
		c15.73-9.87,28.99-17.3,39.78-22.28c10.79-4.98,18.72-7.47,23.79-7.47c1.82,0,3.96,1.15,6.43,3.44c2.47,2.29,4.68,5.09,6.63,8.38
		c1.95,3.29,2.93,5.98,2.93,8.06c0,5.71-2.18,11.39-6.53,17.02c-4.36,5.63-10.82,12.39-19.4,20.27
		c-24.44,22-42.29,39.32-53.53,51.96c-11.25,12.65-16.87,22.82-16.87,30.53c0,5.8,4.55,8.7,13.65,8.7c4.16,0,9.03-1.04,14.63-3.12
		c5.59-2.08,12.29-5.28,20.09-9.61c7.8-4.33,15.66-9.05,23.59-14.16l0.39,10.13c-11.18,7.62-21.19,14.14-30.03,19.55
		c-8.84,5.41-17.2,10.16-25.06,14.22c-7.87,4.07-14.92,7.15-21.16,9.23c-6.24,2.08-11.7,3.12-16.38,3.12
		c-6.76,0-12.19-1.54-16.28-4.61c-4.1-3.08-6.14-7.13-6.14-12.15c0-4.68,1.53-10.33,4.58-16.95c3.05-6.62,7.73-14.27,14.04-22.93
		c6.3-8.66,14.1-18.06,23.4-28.19c9.3-10.13,19.79-20.7,31.49-31.7c11.44-10.91,17.16-17.93,17.16-21.05c0-1.82-1.43-2.73-4.29-2.73
		c-11.57,0-37.96,15.37-79.17,46.12c-2.6,1.91-7.12,5.44-13.55,10.59c-6.43,5.15-13,10.63-19.7,16.43
		c-6.7,5.8-14.2,12.32-22.52,19.55c-8.32,7.23-16.77,14.57-25.35,22.02c-4.03,3.55-7.48,5.33-10.34,5.33
		c-3.12,0-7.22-1.69-12.29-5.07c-5.07-3.38-7.6-5.85-7.6-7.41c0-1.82,3.61-6.37,10.82-13.64
		C435.26,221.96,441.08,215.85,445.5,210.91z"/>
	<path class="st0" d="M846.67,223.65c-3.25-3.98-8.13-7.58-14.63-10.78c-6.5-3.2-13.82-5.78-21.94-7.73
		c-8.13-1.95-16.61-3.4-25.45-4.35c-26.26-2.6-50.77-8.27-73.52-17.02c-1.95-0.69-4.03-2.16-6.24-4.42
		c-2.21-2.25-3.31-4.42-3.31-6.49c0-7.62,1.92-15.27,5.75-22.93c3.83-7.66,8.74-13.66,14.72-17.99
		c9.62-7.19,26.94-13.46,51.97-18.84c25.03-5.37,53.2-8.06,84.54-8.06c18.72,0,33.18,0.95,43.39,2.86
		c10.21,1.91,15.31,4.85,15.31,8.83c0,6.49-1.34,11.52-4,15.07c-2.67,3.55-5.53,5.91-8.58,7.08c-3.06,1.17-8.42,2.75-16.09,4.74
		c-8.19,1.91-15.31,3.9-21.36,5.98c-6.04,2.08-11.21,4.07-15.5,5.98c-4.29,1.91-6.96,2.86-8,2.86c-1.3,0-1.95-0.35-1.95-1.04
		c0-1.47,2.31-3.7,6.92-6.69c4.61-2.99,10.3-5.61,17.07-7.86c7.15-2.51,10.72-4.11,10.72-4.81c0-1.12-3.97-1.69-11.9-1.69
		c-24.05,0-46.28,1.43-66.69,4.29c-20.41,2.86-36.5,6.62-48.27,11.3c-11.77,4.68-17.65,9.44-17.65,14.29c0,3.03,2.44,5.18,7.31,6.43
		c4.88,1.26,15.63,3.36,32.27,6.3c16.64,2.94,31.52,6.32,44.66,10.13c18.85,5.37,32.83,10.96,41.93,16.76
		c9.1,5.8,13.65,12.3,13.65,19.49c0,4.94-1.79,9.9-5.36,14.87c-3.58,4.98-8.81,9.55-15.7,13.71c-6.89,4.16-14.82,7.58-23.79,10.26
		c-7.67,2.16-17.32,4.2-28.96,6.11s-24.25,3.4-37.83,4.48c-13.59,1.08-26.56,1.62-38.91,1.62c-22.75,0-41.05-1.43-54.9-4.29
		c-13.84-2.86-20.77-7.19-20.77-12.99c0-2.6,2.34-6.65,7.02-12.15c4.68-5.5,10.2-9.2,16.58-11.11c5.59-1.47,10.98-2.32,16.18-2.53
		c5.2-0.21,7.8,0.19,7.8,1.23c0,0.26-0.19,0.52-0.59,0.78c-0.39,0.26-0.85,0.48-1.36,0.65c-0.52,0.18-1.04,0.35-1.56,0.52
		c-2.6,0.69-4.71,1.23-6.34,1.63c-1.63,0.39-2.93,0.78-3.9,1.17c-0.98,0.39-1.46,0.93-1.46,1.62c0,1.82,13.46,2.73,40.37,2.73
		c23.4,0,42.58-0.56,57.53-1.69c14.95-1.12,28.15-3.16,39.59-6.11C826.91,232.91,837.31,228.84,846.67,223.65z"/>
	<path class="st0" d="M980.87,264.96l-12.09-5.85c-1.82-1.04-2.73-2.12-2.73-3.25c0-1.12,3.05-5.02,9.17-11.69
		c4.42-4.76,10.36-11.3,17.84-19.62c7.47-8.31,13.49-15.15,18.04-20.52c4.55-5.37,10.11-12.41,16.67-21.11
		c6.56-8.7,12.58-17.21,18.04-25.53c12.61-19.14,18.92-31.35,18.92-36.63c0-6.24-3.64-9.36-10.92-9.36c-5.46,0-13.23,1.84-23.3,5.52
		c-10.08,3.68-20.51,8.51-31.3,14.49c-10.79,5.98-19.76,12.21-26.91,18.71c-7.15,6.5-10.73,12.21-10.73,17.15
		c0,0.78,0.32,1.36,0.98,1.75c0.65,0.39,1.82,0.58,3.51,0.58c3.12,0,8.19-1.21,15.21-3.64c3.12-1.04,4.68-0.86,4.68,0.52
		c0,1.39-4.94,4.96-14.82,10.72c-9.88,5.76-17.16,8.64-21.84,8.64c-4.03,0-9.65-2.32-16.87-6.95s-10.82-8.86-10.82-12.67
		c0-1.47,2.01-4.98,6.04-10.52c4.03-5.54,9.56-11.8,16.58-18.77c7.02-6.97,14.43-13.01,22.23-18.12
		c8.97-5.98,19.21-11.3,30.71-15.98c11.51-4.68,22.55-8.32,33.15-10.91c10.59-2.6,19.14-3.9,25.64-3.9c9.36,0,16.67,2.36,21.94,7.08
		c5.27,4.72,7.9,11.32,7.9,19.81c0,11.26-6.63,27.54-19.89,48.85c-13.26,21.3-33.67,46.25-61.23,74.83c0.39,0.87,0.85,1.8,1.37,2.79
		c0.52,1,0.78,1.93,0.78,2.79c0,0.17-0.19,0.5-0.58,0.97c-0.39,0.48-0.85,0.98-1.37,1.49c-0.52,0.52-0.85,0.87-0.98,1.04
		l-14.23,15.59c-1.56,1.82-3.19,2.73-4.88,2.73C983.21,266,981.91,265.65,980.87,264.96z"/>
	<path class="st0" d="M1115.27,147c0,0.61,0.84,0.91,2.54,0.91c1.17,0,6.46-0.52,15.89-1.56c9.43-1.04,17.97-1.6,25.64-1.69
		c-8.58,1.56-15.96,3.14-22.13,4.74c-6.18,1.6-12.55,3.38-19.11,5.32c-6.56,1.95-11.28,3.25-14.14,3.9
		c-2.86,0.65-5.33,0.98-7.41,0.98c-6.63,0-9.95-2.86-9.95-8.57c0-14.72,5.59-25.07,16.77-31.05c4.55-2.42,11.86-5.3,21.94-8.64
		c10.07-3.33,21.45-6.49,34.13-9.48c12.68-2.99,26.62-5.56,41.83-7.73c15.21-2.16,30.23-3.25,45.05-3.25
		c15.21,0,29.19,1.47,41.93,4.42c12.74,2.95,23.4,7.08,31.98,12.41c8.58,5.32,15.18,11.84,19.79,19.55
		c4.61,7.71,6.92,16.37,6.92,25.98c0,14.64-6.34,28.84-19.01,42.61c-12.67,13.77-29.58,25.92-50.7,36.44
		c-21.13,10.52-44.95,18.86-71.47,25.01c-26.52,6.15-52.65,9.23-78.39,9.23c-4.81,0-8.61-0.35-11.41-1.04
		c-2.8-0.69-4.78-2.06-5.95-4.09c-1.17-2.03-1.76-5.04-1.76-9.03c0-4.94,0.59-8.96,1.76-12.08c1.17-3.12,3.12-6.71,5.85-10.78
		c18.72-27.63,51.29-62.4,97.7-104.32c-9.36,0.69-19.63,2.01-30.81,3.96c-11.18,1.95-21.78,4.09-31.79,6.43
		c-10.01,2.34-18.46,4.59-25.35,6.75C1118.72,144.49,1115.27,146.04,1115.27,147z M1219.21,124.39c0,0.18,0.26,1.15,0.78,2.92
		c0.52,1.78,0.78,3.31,0.78,4.61c0,1.99-1.53,4.79-4.58,8.38c-3.06,3.59-9.07,9.98-18.04,19.16c-8.97,9.18-16.64,17.24-23.01,24.16
		c-6.37,6.93-13.91,15.85-22.62,26.76c-2.73,3.46-4.62,5.8-5.65,7.02c-1.04,1.21-2.7,3.2-4.97,5.98s-3.93,5.15-4.97,7.14
		c-1.04,1.99-1.56,3.51-1.56,4.55c0,2.26,1.85,3.83,5.56,4.74c3.71,0.91,9,1.36,15.89,1.36c17.68,0,36.4-2.14,56.16-6.43
		c19.76-4.29,38.32-10.24,55.67-17.86c17.36-7.62,31.23-16.24,41.63-25.85c10.4-9.61,15.6-19.66,15.6-30.14
		c0-11.95-6.57-21.15-19.7-27.61c-13.13-6.45-32.24-9.68-57.33-9.68C1238.33,123.61,1228.44,123.87,1219.21,124.39z"/>
	<path class="st0" d="M1622.53,97.5v8.83c0,3.64-1.07,5.93-3.22,6.89c-2.14,0.95-10.01,3.51-23.6,7.66
		c-13.59,4.16-26.62,9.05-39.1,14.68c4.81-4.68,9.2-8.14,13.16-10.39c3.96-2.25,9.33-5.07,16.09-8.45
		c-5.85-1.56-13.98-2.34-24.38-2.34c-16.12,0-33.51,2.12-52.16,6.37c-18.66,4.24-34.52,9.31-47.58,15.2
		c-13.07,5.89-19.6,10.83-19.6,14.81c0,2.08,1.98,3.79,5.95,5.13c3.96,1.35,10.34,2.38,19.11,3.12c8.78,0.74,19.73,1.23,32.86,1.49
		c13.13,0.26,29.32,0.39,48.56,0.39c14.04,0,23.07,0.35,27.11,1.04c4.03,0.69,6.05,2.3,6.05,4.81c0,3.2-2.37,6.86-7.12,10.98
		c-4.75,4.11-11.02,6.56-18.82,7.34c-12.09,1.3-21.71,2.4-28.86,3.31c-7.15,0.91-15.63,2.45-25.45,4.61
		c-9.82,2.17-20.7,5.28-32.66,9.35c-17.81,6.24-31.72,12.56-41.73,18.97c-10.01,6.41-15.02,12.08-15.02,17.02
		c0,4.24,3.57,7.56,10.73,9.94c7.15,2.38,17.42,3.57,30.81,3.57c46.15,0,93.15-13.81,140.99-41.44c0.26,8.49-1.14,15.96-4.19,22.41
		c-3.06,6.45-9.26,12.62-18.62,18.51c-7.8,4.94-19.21,9.66-34.22,14.16c-15.01,4.5-31.4,8.1-49.14,10.78
		c-17.75,2.68-34.42,4.03-50.02,4.03c-18.07,0-33.02-2.88-44.85-8.64c-11.83-5.76-17.75-13.4-17.75-22.93
		c0-6.93,2.86-13.81,8.58-20.66c5.72-6.84,14.5-13.4,26.33-19.68c11.83-6.28,26.81-11.97,44.95-17.08
		c18.14-5.11,39.03-9.14,62.69-12.08c3.38-0.43,5.07-1.12,5.07-2.08c0-1.04-1.98-1.67-5.95-1.89c-3.97-0.21-11.25-0.37-21.84-0.45
		c-10.6-0.09-19.93-0.39-27.98-0.91c-8.06-0.52-16.58-1.64-25.55-3.38c-9.23-1.9-16.35-5.24-21.35-10
		c-5.01-4.76-7.51-10.04-7.51-15.85c0-7.45,4.03-14.94,12.09-22.47c8.06-7.53,19.43-14.33,34.13-20.4
		c14.69-6.06,32.47-10.93,53.33-14.62c20.87-3.68,43.71-5.52,68.55-5.52c14.3,0,24.28,0.54,29.93,1.62
		c5.65,1.08,8.94,2.51,9.85,4.29C1622.07,89.34,1622.53,92.65,1622.53,97.5z"/>
</g>
<g>
	<path class="st0" d="M409.4,334.65c3.3-0.63,6.62-1.26,9.98-1.89c3.36-0.63,6.78-1.16,10.26-1.61c3.48-0.45,6.87-0.67,10.16-0.67
		c7.08,0,13.15,1.17,18.22,3.5c5.07,2.33,8.85,5.5,11.36,9.49c2.5,3.99,3.75,8.32,3.75,12.98c0,7.27-1.8,15.59-5.4,24.96
		c-3.6,9.37-8.76,18.91-15.48,28.59c-6.72,9.69-14.59,18.84-23.62,27.45c-12.33,11.66-27.14,21.06-44.41,28.19
		c-17.28,7.13-33.12,10.7-47.53,10.7c-10.62,0-19.99-2.13-28.11-6.39c-8.12-4.26-14.47-10.45-19.05-18.57s-6.87-17.65-6.87-28.59
		c0-14.71,5.46-29.44,16.39-44.2c10.93-14.75,24.73-28.12,41.39-40.1c16.67-11.98,33.48-21.57,50.46-28.79
		c16.97-7.22,30.77-10.83,41.39-10.83c8.67,0,15.32,1.95,19.96,5.85c4.64,3.9,8.98,10.21,13,18.91
		c-11.35,0.27-21.24,1.28-29.67,3.03C427.16,328.4,418.43,331.06,409.4,334.65z M363.25,361.97c-8.55,6.73-17.19,15.41-25.91,26.04
		c-8.73,10.63-15.78,21.06-21.15,31.28c-5.37,10.23-8.06,18.03-8.06,23.41c0,13.37,8.48,20.05,25.46,20.05
		c11.84,0,27.13-5.87,45.88-17.63c18.74-11.75,35.04-25.9,48.9-42.45c13.86-16.55,20.79-31.6,20.79-45.15
		c0-9.96-5.37-14.93-16.12-14.93c-8.3,0-18.44,2.42-30.4,7.27c-11.97,4.84-23.44,11.71-34.43,20.59
		c-3.91,3.23-11.66,11.13-23.26,23.68C347.13,385.7,353.23,374.98,363.25,361.97z"/>
	<path class="st0" d="M717.11,366.68c-11.97,12.92-22.04,24.62-30.22,35.12c-8.18,10.49-14.32,19.44-18.41,26.84
		c-4.09,7.4-6.13,12.9-6.13,16.48c0,6.64,3.97,9.96,11.9,9.96c8.43,0,27.47-8.43,57.14-25.3l-0.37,9.29
		c-34.31,25.75-59.46,38.62-75.45,38.62c-19.05,0-28.57-7.27-28.57-21.8c0-8.7,5.8-21.04,17.4-37c11.6-15.97,29.3-36.6,53.11-61.9
		c-27.96,22.43-51.31,40.86-70.05,55.3c-18.74,14.44-38.13,28.44-58.15,41.98c-4.76,3.32-9.1,6.35-13,9.08
		c-3.91,2.74-7.82,4.89-11.72,6.46c-3.91,1.57-8.18,2.35-12.82,2.35c-7.21,0-13.19-2.06-17.95-6.19c-4.76-4.13-7.14-9.96-7.14-17.49
		c0-4.84,1.95-10.47,5.86-16.89c3.91-6.41,9.83-13.88,17.77-22.4c7.93-8.52,17.7-17.85,29.3-27.99c18.8-16.59,31.8-28.3,39.01-35.12
		c7.2-6.82,10.81-11.17,10.81-13.05c0-1.35-0.98-2.02-2.93-2.02c-2.32,0-6.2,0.79-11.63,2.35c-5.43,1.57-12.61,4.13-21.52,7.67
		c-8.91,3.55-20.39,8.59-34.43,15.14c-10.5,4.84-20.85,8.77-31.04,11.77c-10.2,3.01-17.37,4.51-21.52,4.51
		c-2.44,0-4.49-0.49-6.14-1.48c-1.65-0.99-2.47-2.24-2.47-3.77c0-2.15,1.28-5.67,3.85-10.56c2.57-4.89,5.89-9.96,9.98-15.2
		c4.09-5.25,7.72-9.17,10.9-11.77c8.79-7.18,20.81-13.5,36.08-18.97c15.26-5.47,30.95-9.69,47.07-12.65
		c16.12-2.96,29.42-4.44,39.92-4.44c7.81,0,13.52,0.97,17.12,2.89c3.6,1.93,5.4,5.09,5.4,9.49c0,9.6-1.65,17.02-4.95,22.27
		c-3.3,5.25-8.79,12.04-16.48,20.38c-2.81,3.23-6.99,7.65-12.55,13.25c-5.56,5.61-11.17,11.08-16.85,16.42
		c-5.68,5.34-10.35,9.8-14.01,13.39c-3.66,3.59-7.45,7.53-11.36,11.84c-10.62,11.48-17.34,18.88-20.14,22.2
		c-2.81,3.32-4.21,6.19-4.21,8.61c0,3.14,2.02,4.71,6.04,4.71c3.66,0,7.2-0.96,10.62-2.89c3.42-1.93,10.74-6.48,21.97-13.66
		c12.94-8.16,25.52-16.73,37.73-25.7c12.21-8.97,23.32-17.51,33.33-25.63c10.01-8.12,22.71-18.64,38.09-31.56
		c17.21-14.71,28.2-23.9,32.97-27.58c4.76-3.68,8.67-5.52,11.72-5.52c2.68,0,5.1,1.59,7.23,4.78c2.14,3.18,3.21,7.65,3.21,13.39
		c0,3.05-2.11,7.11-6.32,12.18C739.91,341.94,730.91,351.87,717.11,366.68z"/>
	<path class="st0" d="M885.82,445.93l6.05,3.36c-1.59,2.51-3.12,4.71-4.58,6.59c-1.47,1.89-3.24,4.17-5.31,6.86
		c-2.08,2.69-3.66,4.71-4.76,6.06c-9.16,11.75-17.76,17.63-25.82,17.63c-3.42,0-6.35-0.99-8.79-2.96c-2.45-1.97-3.66-4.67-3.66-8.08
		c0-4.84,2.35-11.48,7.05-19.91c4.7-8.43,11.96-18.81,21.79-31.15c9.83-12.33,22.19-26.31,37.09-41.92
		c14.9-15.61,31.68-32.07,50.37-49.38c-10.75-1.16-23.5-1.75-38.28-1.75c-16.97,0-35.87,1.39-56.68,4.17
		c-20.82,2.78-38.95,5.99-54.39,9.62c-15.45,3.63-23.17,6.3-23.17,8.01c0,0.63,0.31,1.05,0.92,1.28c0.61,0.23,1.62,0.4,3.02,0.54
		c1.4,0.13,3.2,0.29,5.4,0.47c14.28,1.44,21.43,3.05,21.43,4.84c0,0.9-3.11,1.32-9.34,1.28c-6.23-0.04-13.73-0.07-22.52-0.07
		c-6.96,0-12-0.2-15.11-0.61c-3.11-0.4-5.19-1.16-6.23-2.29c-1.04-1.12-1.56-2.85-1.56-5.18c0-1.53,0.61-4.84,1.83-9.96
		c2.32-9.51,5.89-17.13,10.71-22.88c4.82-5.74,12.21-10.43,22.16-14.06c9.95-3.63,23.65-6.53,41.12-8.68
		c29.3-3.68,53.54-5.52,72.71-5.52c14.16,0,25.33,0.43,33.51,1.28c8.18,0.85,14.19,2.08,18.04,3.7c3.85,1.61,6.29,3.21,7.33,4.77
		c1.04,1.57,2.41,4.28,4.12,8.14l5.68,12.38c0.37,0.81,0.67,1.46,0.92,1.95c0.24,0.49,0.46,1.01,0.64,1.55
		c0.18,0.54,0.27,1.03,0.27,1.48c0,3.5-1.07,6.64-3.2,9.42c-2.14,2.78-6.04,6.95-11.72,12.51c-5.68,5.56-9.86,9.91-12.55,13.05
		C918.79,400.09,897.3,427.9,885.82,445.93z"/>
	<path class="st0" d="M1082.19,405.7h27.66c15.99-15.79,28.17-29.56,36.54-41.31c8.36-11.75,12.55-19.46,12.55-23.14
		c0-5.11-5.99-7.67-17.95-7.67c-6.96,0.45-19.29,1.55-36.99,3.3c-17.7,1.75-34.86,3.84-51.46,6.26c-14.9,2.07-26.83,4.19-35.8,6.39
		c-8.97,2.2-15.29,4.02-18.95,5.45c-3.66,1.44-5.93,2.47-6.78,3.09c9.04-0.36,16.67-0.54,22.89-0.54c9.77,0,14.65,0.81,14.65,2.42
		c0,0.72-3.42,1.64-10.26,2.76c-6.84,1.12-13.31,2.31-19.41,3.57c-5.98,1.26-11.81,2.74-17.49,4.44c-5.68,1.71-9.13,2.56-10.35,2.56
		c-2.81,0-5.13-0.79-6.96-2.35c-1.83-1.57-2.75-3.48-2.75-5.72c0-1.53,1.68-5.5,5.04-11.91c3.36-6.41,8.09-12.87,14.19-19.38
		c6.1-6.5,13.67-11.32,22.71-14.47c3.3-1.16,13.83-3.27,31.59-6.32c17.76-3.05,37.82-5.83,60.16-8.34
		c22.34-2.51,42.79-3.77,61.35-3.77c11.23,0,20.24,1.14,27.01,3.43c6.78,2.29,10.16,7.2,10.16,14.73c0,2.42-1.22,6.17-3.66,11.24
		c-2.45,5.07-6.32,11.55-11.63,19.44c-5.31,7.9-11.78,16.55-19.41,25.97c-7.63,9.42-16.33,19.38-26.1,29.87h28.2l-24.36,25.7
		c-3.3,0.18-7.42,0.32-12.36,0.4c-4.94,0.09-10.35,0.23-16.21,0.4c-15.02,14.35-31.29,27.85-48.81,40.5
		c-17.52,12.65-33.39,22.78-47.62,30.41c-14.22,7.62-24.21,11.44-29.94,11.44c-2.32,0-4.34-0.56-6.05-1.68
		c-1.71-1.12-2.56-2.58-2.56-4.37c0-1.53,2.72-5.43,8.15-11.71c5.43-6.28,12.97-12.16,22.62-17.63c9.64-5.47,20.63-8.52,32.97-9.15
		c5-3.86,9.31-7.29,12.91-10.29c3.6-3,8.7-7.35,15.29-13.05c6.59-5.7,11.66-10.07,15.2-13.12l-55.13,2.02
		c-5.99,0.18-10.1-0.02-12.36-0.61c-2.26-0.58-3.39-2.04-3.39-4.37c2.44-4.58,4.33-7.71,5.68-9.42c1.95-2.6,3.51-4.17,4.67-4.71
		c1.16-0.54,4.49-1.26,9.98-2.15l33.7-6.06C1072.36,406.55,1078.64,405.7,1082.19,405.7z"/>
	<path class="st0" d="M1247.97,476.61l-11.36-6.06c-1.71-1.08-2.56-2.2-2.56-3.37c0-1.16,2.87-5.2,8.61-12.11
		c4.15-4.93,9.73-11.71,16.76-20.32c7.02-8.61,12.67-15.7,16.94-21.26c4.27-5.56,9.49-12.85,15.66-21.86
		c6.16-9.02,11.81-17.83,16.94-26.44c11.84-19.83,17.76-32.47,17.76-37.95c0-6.46-3.42-9.69-10.26-9.69
		c-5.13,0-12.42,1.91-21.89,5.72c-9.46,3.81-19.26,8.81-29.39,15c-10.14,6.19-18.56,12.65-25.27,19.38
		c-6.72,6.73-10.07,12.65-10.07,17.76c0,0.81,0.31,1.41,0.92,1.82c0.61,0.4,1.71,0.61,3.3,0.61c2.93,0,7.69-1.26,14.28-3.77
		c2.93-1.08,4.4-0.9,4.4,0.54c0,1.44-4.64,5.14-13.92,11.1c-9.28,5.97-16.11,8.95-20.51,8.95c-3.79,0-9.07-2.4-15.84-7.2
		c-6.78-4.8-10.16-9.17-10.16-13.12c0-1.53,1.89-5.16,5.68-10.9c3.78-5.74,8.97-12.22,15.57-19.44
		c6.59-7.22,13.55-13.48,20.88-18.77c8.43-6.19,18.04-11.71,28.85-16.55c10.8-4.84,21.18-8.61,31.13-11.3
		c9.95-2.69,17.98-4.04,24.08-4.04c8.79,0,15.66,2.45,20.6,7.33c4.94,4.89,7.42,11.73,7.42,20.52c0,11.66-6.23,28.53-18.68,50.6
		c-12.45,22.07-31.62,47.9-57.51,77.5c0.37,0.9,0.79,1.86,1.28,2.89c0.49,1.03,0.73,2,0.73,2.89c0,0.18-0.18,0.52-0.55,1.01
		c-0.37,0.49-0.8,1.01-1.28,1.55c-0.49,0.54-0.8,0.9-0.92,1.08l-13.37,16.15c-1.47,1.89-2.99,2.83-4.58,2.83
		C1250.16,477.69,1248.94,477.33,1247.97,476.61z"/>
	<path class="st0" d="M1504.4,445.93l6.05,3.36c-1.59,2.51-3.12,4.71-4.58,6.59c-1.47,1.89-3.24,4.17-5.31,6.86
		c-2.08,2.69-3.66,4.71-4.76,6.06c-9.16,11.75-17.76,17.63-25.82,17.63c-3.42,0-6.35-0.99-8.79-2.96c-2.45-1.97-3.66-4.67-3.66-8.08
		c0-4.84,2.35-11.48,7.05-19.91c4.7-8.43,11.96-18.81,21.79-31.15c9.83-12.33,22.19-26.31,37.09-41.92
		c14.9-15.61,31.68-32.07,50.37-49.38c-10.75-1.16-23.5-1.75-38.28-1.75c-16.97,0-35.87,1.39-56.68,4.17
		c-20.82,2.78-38.95,5.99-54.39,9.62c-15.45,3.63-23.17,6.3-23.17,8.01c0,0.63,0.31,1.05,0.92,1.28c0.61,0.23,1.62,0.4,3.02,0.54
		c1.4,0.13,3.2,0.29,5.4,0.47c14.28,1.44,21.43,3.05,21.43,4.84c0,0.9-3.11,1.32-9.34,1.28c-6.23-0.04-13.73-0.07-22.52-0.07
		c-6.96,0-12-0.2-15.11-0.61c-3.11-0.4-5.19-1.16-6.23-2.29c-1.04-1.12-1.56-2.85-1.56-5.18c0-1.53,0.61-4.84,1.83-9.96
		c2.32-9.51,5.89-17.13,10.71-22.88c4.82-5.74,12.21-10.43,22.16-14.06c9.95-3.63,23.65-6.53,41.12-8.68
		c29.3-3.68,53.54-5.52,72.71-5.52c14.16,0,25.33,0.43,33.51,1.28c8.18,0.85,14.19,2.08,18.04,3.7c3.85,1.61,6.29,3.21,7.33,4.77
		c1.04,1.57,2.41,4.28,4.12,8.14l5.68,12.38c0.37,0.81,0.67,1.46,0.92,1.95c0.24,0.49,0.46,1.01,0.64,1.55
		c0.18,0.54,0.27,1.03,0.27,1.48c0,3.5-1.07,6.64-3.2,9.42c-2.14,2.78-6.04,6.95-11.72,12.51c-5.68,5.56-9.86,9.91-12.55,13.05
		C1537.37,400.09,1515.88,427.9,1504.4,445.93z"/>
</g>
</svg>
